<svg xmlns="http://www.w3.org/2000/svg" width="13.329" height="23.725" viewBox="0 0 13.329 23.725">
  <path id="Path_10426" data-name="Path 10426" d="M720.646,402.283h-.778V397.3a5.413,5.413,0,0,0-10.827,0v4.982h-.778a.473.473,0,0,0-.473.473v6.629a6.228,6.228,0,0,0,6.227,6.228h.874a6.228,6.228,0,0,0,6.228-6.228v-6.629A.473.473,0,0,0,720.646,402.283Zm-9.822-4.982a3.631,3.631,0,0,1,7.261,0v4.982h-7.261Zm4.779,13.906h-2.3l.356-2.193a1.3,1.3,0,1,1,1.585,0Z" transform="translate(-707.79 -391.888)" fill="#3fa9f5"/>
</svg>
