<svg xmlns="http://www.w3.org/2000/svg" width="28.028" height="33.951" viewBox="0 0 28.028 33.951">
  <g id="Group_60" data-name="Group 60" transform="translate(-166.158 1727)">
    <path id="Path_121" data-name="Path 121" d="M193.437-1715.51c-.379.352-.773.7-1.15,1.072-3.589,3.515-3.311,8.449.8,11.358,1.234.873,1.386,1.643.679,2.761A60.2,60.2,0,0,1,190.25-1695a4.577,4.577,0,0,1-5.946,1.375,7.846,7.846,0,0,0-6.963.073,4.146,4.146,0,0,1-5.014-.764c-4.712-4.873-7.09-10.631-5.839-17.444,1.011-5.51,7.345-8.926,11.977-6.2,1.707,1,3.347.306,5-.317C187.513-1719.805,191.081-1718.807,193.437-1715.51Z"/>
    <path id="Path_122" data-name="Path 122" d="M187.234-1727c.252,4.415-2.848,7.847-6.93,7.847C179.82-1723.189,182.844-1726.66,187.234-1727Z"/>
  </g>
</svg>
