<svg xmlns="http://www.w3.org/2000/svg" width="29.901" height="30.41" viewBox="0 0 29.901 30.41">
  <g id="Group_59" data-name="Group 59" transform="translate(-165.221 1616.098)">
    <path id="Path_117" data-name="Path 117" d="M184.19-1586.089l.008.027c.118-.032.236-.068.355-.1.192-.046.388-.076.577-.133.229-.069.451-.16.676-.24.247-.088.5-.169.741-.261.2-.075.4-.154.588-.248.3-.147.6-.3.888-.463.2-.106.385-.221.573-.338.245-.153.49-.3.727-.469.145-.1.274-.225.413-.335.235-.188.474-.372.708-.56a.081.081,0,0,0,.013-.077,1.4,1.4,0,0,0-.188-.2c-.11-.09-.232-.164-.342-.253-.291-.232-.574-.473-.867-.7-.258-.2-.528-.386-.787-.585-.173-.133-.33-.287-.5-.419-.315-.241-.637-.47-.954-.708s-.654-.5-.983-.75a.244.244,0,0,0-.331-.03,5.063,5.063,0,0,1-.586.346c-.178.093-.366.165-.549.247a1.713,1.713,0,0,1-.222.1c-.483.143-.963.3-1.453.415a6.4,6.4,0,0,1-1.012.155c-.469.037-.94.047-1.41.054a6.965,6.965,0,0,1-1.446-.152,5.694,5.694,0,0,1-1.143-.309c-.238-.1-.488-.172-.73-.264a3.549,3.549,0,0,1-.5-.219c-.328-.191-.655-.386-.968-.6s-.65-.468-.953-.727a9.552,9.552,0,0,1-.728-.723,8.641,8.641,0,0,1-.611-.7c-.212-.278-.4-.574-.591-.868a3.89,3.89,0,0,1-.252-.45c-.141-.3-.267-.6-.406-.9-.024-.053-.086-.138-.114-.131-.1.022-.224-.011-.291.1-.009.016-.015.037-.029.047-.129.09-.265.171-.389.268-.2.158-.4.329-.6.489-.132.1-.273.2-.409.3-.107.078-.213.157-.319.237l-.807.618c-.1.078-.209.151-.305.235-.141.123-.27.26-.414.381-.1.086-.223.153-.331.233-.251.186-.507.366-.745.566a.377.377,0,0,0-.1.568c.119.193.239.386.361.577.219.343.435.689.662,1.026.112.166.247.316.373.473.209.26.407.529.63.776s.481.483.722.724c.126.126.244.261.379.376.241.2.493.392.737.589.051.041.086.1.137.14.189.151.379.3.573.444.111.082.227.159.345.231s.252.135.373.212.246.188.38.262c.38.209.762.415,1.15.607.32.159.645.309.976.439a8.612,8.612,0,0,0,1.147.38c.273.065.538.165.81.239.387.1.781.166,1.173.237.19.034.389.025.576.069a5.967,5.967,0,0,0,1.161.112c.269.01.538.013.807.011.376,0,.752-.009,1.127-.023.217-.008.434-.033.65-.055a2.055,2.055,0,0,0,.217-.045,1.252,1.252,0,0,1,.188-.041,4.182,4.182,0,0,0,.435-.015c.292-.048.58-.115.869-.176C184.093-1586.054,184.141-1586.074,184.19-1586.089Z" fill="#34a752"/>
    <path id="Path_118" data-name="Path 118" d="M184.629-1597.956v0h3.815a1.085,1.085,0,0,1,.221.015c.1.019.166.065.146.185a6.369,6.369,0,0,1-.431,1.5,6.286,6.286,0,0,1-.9,1.531c-.244.294-.5.58-.755.861a3.023,3.023,0,0,1-.353.3c-.17.137-.346.267-.513.407a.113.113,0,0,0,.007.109,1.67,1.67,0,0,0,.186.143c.244.184.489.366.731.554s.459.364.688.547c.015.012.033.021.048.033.242.177.487.349.723.533s.486.407.736.6c.345.266.7.52,1.047.784.139.1.263.231.4.329.227.156.218.141.366-.037a.515.515,0,0,1,.041-.041c.22-.225.453-.438.658-.676a13.416,13.416,0,0,0,.853-1.068,15.393,15.393,0,0,0,.888-1.416,14.473,14.473,0,0,0,.726-1.544,16.168,16.168,0,0,0,.564-1.662c.138-.494.217-1.006.323-1.509a13.642,13.642,0,0,0,.243-2.093c.027-.523.029-1.048.023-1.572a5.491,5.491,0,0,0-.14-1.381.328.328,0,0,1-.01-.1,3.48,3.48,0,0,0-.118-1.005.112.112,0,0,0-.128-.1c-.151,0-.3,0-.455,0h-1.061c-.69,0-1.381,0-2.072,0-.519,0-1.038-.012-1.558-.013-.32,0-.64.013-.96.013-.829,0-1.658-.008-2.487-.009-.508,0-1.016.008-1.524.01-.935,0-1.87,0-2.8.007-.339,0-.679.014-1.018.013-.229,0-.235,0-.235.228,0,.4,0,.8,0,1.2q0,1.82,0,3.638c0,.184.007.368.009.552,0,.094.034.142.142.134.128-.01.258,0,.387,0Z" fill="#4185f4"/>
    <path id="Path_119" data-name="Path 119" d="M171.737-1603.663c.005-.188-.01-.207-.148-.307-.168-.123-.334-.248-.5-.379-.266-.213-.525-.434-.793-.645-.24-.189-.488-.368-.731-.554-.29-.222-.576-.448-.865-.671-.25-.192-.5-.377-.752-.573a7.952,7.952,0,0,0-1.037-.759c-.063-.036-.1-.033-.13.032-.067.14-.139.279-.2.42s-.128.292-.191.438c-.086.2-.189.388-.256.591-.147.451-.295.9-.409,1.365-.138.555-.255,1.116-.358,1.679a12.785,12.785,0,0,0-.143,1.984,10.764,10.764,0,0,0,.039,1.135c.04.516.081,1.034.16,1.546a13.5,13.5,0,0,0,.3,1.358c.107.41.243.812.375,1.215a6.048,6.048,0,0,0,.22.565c.151.341.311.679.467,1.018.034.074.075.1.152.042.421-.328.846-.653,1.268-.98q.509-.393,1.015-.79c.175-.137.345-.28.52-.417.246-.192.495-.379.741-.571.182-.141.359-.287.54-.429.219-.171.443-.334.655-.512a.264.264,0,0,0,.069-.191,1.194,1.194,0,0,0-.066-.27,7.694,7.694,0,0,1-.318-1.695c-.018-.326-.008-.654-.037-.98a6.066,6.066,0,0,1,.061-.972,2.878,2.878,0,0,1,.044-.383c.065-.3.141-.607.212-.911Z" fill="#f9ba03"/>
    <path id="Path_120" data-name="Path 120" d="M180.474-1610.178a11.965,11.965,0,0,1,1.215.073,13.679,13.679,0,0,1,1.55.342,5.777,5.777,0,0,1,1.394.6c.387.231.762.482,1.135.736a5.932,5.932,0,0,1,.472.382c.076.064.136.1.228.009.237-.237.489-.459.728-.694.58-.57,1.155-1.143,1.732-1.715q.561-.556,1.121-1.114c.157-.156.312-.315.466-.475.13-.135.126-.2-.013-.324-.076-.067-.152-.133-.23-.2-.295-.242-.582-.5-.889-.72a14.406,14.406,0,0,0-1.671-1.053,13.243,13.243,0,0,0-2.028-.9q-.641-.218-1.294-.4c-.314-.087-.635-.155-.957-.214-.279-.052-.563-.084-.845-.117-.352-.042-.705-.09-1.058-.112-.376-.023-.754-.028-1.13-.025-.324,0-.649.014-.97.046q-.762.077-1.52.188a12.212,12.212,0,0,0-1.939.462,14.36,14.36,0,0,0-1.851.715c-.442.212-.876.443-1.3.686-.337.192-.658.413-.982.627q-.263.176-.51.374c-.367.3-.745.579-1.089.9-.424.4-.826.817-1.22,1.244a10.962,10.962,0,0,0-.829,1c-.322.445-.612.913-.909,1.375-.129.2-.238.412-.357.618a.141.141,0,0,0,.049.218c.078.051.153.108.227.166.476.373.95.749,1.428,1.12s.96.736,1.439,1.1q.812.624,1.621,1.25c.129.1.152.09.216-.056q.2-.466.407-.931a7.93,7.93,0,0,1,.813-1.35,7.173,7.173,0,0,1,1.1-1.243,14.328,14.328,0,0,1,1.259-1.026,10.746,10.746,0,0,1,1.2-.681,8.1,8.1,0,0,1,2.088-.706A7.663,7.663,0,0,1,180.474-1610.178Z" fill="#e74033"/>
  </g>
</svg>
