<svg id="Group_995" data-name="Group 995" xmlns="http://www.w3.org/2000/svg" width="71.716" height="18.378" viewBox="0 0 71.716 18.378">
  <path id="Path_9626" data-name="Path 9626" d="M783.845,417.29h3.677l.548,13.809.132.023c.1-.212.2-.424.289-.638,1.833-4.224,3.674-8.446,5.49-12.678a.728.728,0,0,1,.809-.526c1.423.026,2.847.009,4.375.009v13.835l.2.043,6.4-13.848h3.787c-.1.226-.168.409-.252.586q-4.088,8.571-8.166,17.148a.844.844,0,0,1-.917.579c-1.3-.034-2.6-.012-4.035-.012V421.21l-.22-.05c-.088.18-.185.357-.265.539q-2.937,6.653-5.86,13.313a.856.856,0,0,1-.94.624c-1.279-.041-2.559-.014-3.885-.014-.058-.787-.117-1.51-.163-2.235q-.45-7.235-.9-14.471a3.926,3.926,0,0,0-.1-.528Z" transform="translate(-783.845 -417.281)" fill="#fff"/>
  <path id="Path_9627" data-name="Path 9627" d="M819.215,434.606c.346-2.032.683-3.968,1-5.907.147-.9.3-1.8.369-2.711.161-2.038-1.4-3.082-3.28-2.214a3.118,3.118,0,0,0-1.706,1.976c-.384,1.276-.667,2.586-.93,3.894-.325,1.626-.588,3.267-.881,4.919h-3.52l2.4-13.449h3.357l-.125,1.246c.234-.181.409-.319.589-.455a5.184,5.184,0,0,1,4.132-1.073,4.221,4.221,0,0,1,3.615,4.951c-.27,2.191-.717,4.361-1.088,6.538-.106.62-.2,1.244-.341,1.855-.039.164-.248.4-.386.409C821.391,434.622,820.356,434.606,819.215,434.606Z" transform="translate(-776.138 -416.267)" fill="#fff"/>
  <path id="Path_9628" data-name="Path 9628" d="M831.557,423.981c.4-.942.743-1.763,1.112-2.57a.713.713,0,0,1,.391-.323,10.814,10.814,0,0,1,6.249-.324,3.608,3.608,0,0,1,2.918,4.172c-.292,2.35-.779,4.676-1.179,7.013-.152.9-.3,1.793-.455,2.716h-2.926l.282-2.164c-.293.243-.6.471-.876.731a4.943,4.943,0,0,1-5.152,1.134,3.286,3.286,0,0,1-2.436-2.9,4.014,4.014,0,0,1,1.767-4.235,9.241,9.241,0,0,1,4.6-1.223c.873-.056,1.75-.056,2.626-.049.386,0,.533-.121.562-.517.108-1.522-.55-2.271-2.156-2.368a11.93,11.93,0,0,0-4.624.654C832.077,423.792,831.888,423.862,831.557,423.981Zm7.052,4.213-.143-.229c-1.165.116-2.347.152-3.489.381a3.835,3.835,0,0,0-1.669.912,1.618,1.618,0,0,0-.413,1.846,1.5,1.5,0,0,0,1.46.917,3.213,3.213,0,0,0,3.263-1.569A22.172,22.172,0,0,0,838.61,428.194Z" transform="translate(-770.55 -416.358)" fill="#fff"/>
  <path id="Path_9629" data-name="Path 9629" d="M811.721,434.669h-2.937l.32-2.4c-.3.322-.486.524-.673.725a4.947,4.947,0,0,1-4.951,1.5,3.365,3.365,0,0,1-2.834-2.759,4.04,4.04,0,0,1,1.648-4.452,8.991,8.991,0,0,1,4.653-1.274c.894-.058,1.793-.056,2.689-.05.367,0,.495-.137.528-.491.14-1.5-.542-2.29-2.135-2.391a11.8,11.8,0,0,0-4.684.667c-.185.065-.371.124-.663.221.4-.929.744-1.763,1.116-2.585a.637.637,0,0,1,.354-.284,10.816,10.816,0,0,1,6.075-.381c2.49.6,3.524,2.355,3.055,5.115-.424,2.5-.9,4.988-1.352,7.484C811.852,433.749,811.795,434.188,811.721,434.669Zm-1.947-6.593a10.756,10.756,0,0,0-4.057.369,3.819,3.819,0,0,0-1.314.831,1.661,1.661,0,0,0-.378,1.856,1.511,1.511,0,0,0,1.476.893,3.2,3.2,0,0,0,3.215-1.547A24.806,24.806,0,0,0,809.775,428.076Z" transform="translate(-778.978 -416.359)" fill="#fff"/>
  <path id="Path_9630" data-name="Path 9630" d="M821.433,431.158a14.181,14.181,0,0,0,2.38.812,5.881,5.881,0,0,0,2.341-.1,1.325,1.325,0,0,0,.61-2.333,7.1,7.1,0,0,0-1.089-.876c-.509-.369-1.06-.686-1.553-1.077a3.617,3.617,0,0,1,.346-6.053,7.025,7.025,0,0,1,3.177-.967,15.673,15.673,0,0,1,4.915.5l-.934,2.576a20.029,20.029,0,0,0-2.52-.488,5.052,5.052,0,0,0-1.966.258,1.058,1.058,0,0,0-.39,1.885,12.872,12.872,0,0,0,1.4,1.07c.442.325.894.635,1.329.97a3.915,3.915,0,0,1-.837,6.572,9.437,9.437,0,0,1-7.361.118.588.588,0,0,1-.31-.465C821.1,432.74,821.28,431.931,821.433,431.158Z" transform="translate(-773.016 -416.336)" fill="#fff"/>
</svg>
