<svg id="Group_982" data-name="Group 982" xmlns="http://www.w3.org/2000/svg" width="129.363" height="21.91" viewBox="0 0 129.363 21.91">
  <path id="Path_9536" data-name="Path 9536" d="M408.3,377.513v7.649l-6.048-4.277Z" transform="translate(-341.216 -369.777)" fill="#244999"/>
  <path id="Path_9537" data-name="Path 9537" d="M397.589,377.513v7.649l6.048-4.277Z" transform="translate(-342.574 -369.777)" fill="#94a848"/>
  <path id="Path_9538" data-name="Path 9538" d="M404.037,371.523l-7.819,4.407,7.819-.022Z" transform="translate(-342.974 -371.523)" fill="#ffdd12"/>
  <path id="Path_9539" data-name="Path 9539" d="M402.267,371.523l7.816,4.407-7.816-.022Z" transform="translate(-341.21 -371.523)" fill="#efc3bf"/>
  <path id="Path_9540" data-name="Path 9540" d="M404.034,380.123l-7.8,5.469h7.8Z" transform="translate(-342.97 -369.015)" fill="#d2d70c"/>
  <path id="Path_9541" data-name="Path 9541" d="M402.267,380.123l7.808,5.469h-7.808Z" transform="translate(-341.21 -369.015)" fill="#2baee5"/>
  <path id="Path_9542" data-name="Path 9542" d="M396.232,384.357h7.8v5.333Z" transform="translate(-342.97 -367.78)" fill="#faef81"/>
  <path id="Path_9543" data-name="Path 9543" d="M410.052,384.357h-7.785v5.333Z" transform="translate(-341.21 -367.78)" fill="#aedef8"/>
  <path id="Path_9544" data-name="Path 9544" d="M396.232,374.919h7.819v4.343Z" transform="translate(-342.97 -370.533)" fill="#f08825"/>
  <path id="Path_9545" data-name="Path 9545" d="M410.09,374.919h-7.817v4.343Z" transform="translate(-341.208 -370.533)" fill="#e84286"/>
  <path id="Path_9546" data-name="Path 9546" d="M411.834,387.132V374.919l-7.8,4.343-7.8-4.343v12.207l1.753,1.189V378.269l6.048,3.341,6.017-3.351v10.056Z" transform="translate(-342.97 -370.533)" fill="#fff"/>
  <path id="Path_9547" data-name="Path 9547" d="M427.756,382.655a3.8,3.8,0,0,0,1.666-1.213,3.757,3.757,0,0,0,.807-2.4,4.254,4.254,0,0,0-.309-1.635,3.47,3.47,0,0,0-.934-1.3,4.211,4.211,0,0,0-1.489-.818,6.474,6.474,0,0,0-1.965-.275H420.48v13.374h1.77V376.719h3.283a3.459,3.459,0,0,1,2.178.6,2.443,2.443,0,0,1,0,3.445,3.432,3.432,0,0,1-2.178.607h-2.166v1.681h2.614l2.484,5.341h1.947Z" transform="translate(-335.898 -370.504)" fill="#fff"/>
  <path id="Path_9548" data-name="Path 9548" d="M429.2,375.02v1.715h4.024V388.4h1.772V376.735h4.042V375.02Z" transform="translate(-333.356 -370.504)" fill="#fff"/>
  <path id="Path_9549" data-name="Path 9549" d="M416.364,375.02h-1.492L409.74,388.4h1.869l1.616-4.19,4.863.022L419.7,388.4h1.851Zm-2.557,7.607,1.807-4.747,1.845,4.749Z" transform="translate(-339.03 -370.504)" fill="#fff"/>
  <path id="Path_9550" data-name="Path 9550" d="M396.42,383.239a3.724,3.724,0,0,0-.767-1.168,4.245,4.245,0,0,0-1.162-.837,4.731,4.731,0,0,0-1.474-.43l-2.4-.3a4.02,4.02,0,0,1-.756-.174,1.878,1.878,0,0,1-.58-.32,1.522,1.522,0,0,1-.385-.51,1.779,1.779,0,0,1-.146-.776,1.689,1.689,0,0,1,.2-.858,2.525,2.525,0,0,1,.521-.652,2.371,2.371,0,0,1,.938-.5,4.408,4.408,0,0,1,1.2-.161,4.016,4.016,0,0,1,1.458.256,2.244,2.244,0,0,1,.975.678,2.267,2.267,0,0,1,.4.625,2.968,2.968,0,0,1,.2.76l.054.355h1.771l-.037-.451a3.812,3.812,0,0,0-.345-1.339,4.6,4.6,0,0,0-.722-1.075,4.214,4.214,0,0,0-1.635-1.112,5.678,5.678,0,0,0-3.973-.1,4.412,4.412,0,0,0-1.557.9,4.234,4.234,0,0,0-.882,1.115,3.186,3.186,0,0,0-.366,1.562,3.662,3.662,0,0,0,.264,1.434,3.178,3.178,0,0,0,.75,1.085,3.5,3.5,0,0,0,1.113.716,5.588,5.588,0,0,0,1.352.349l2.361.3a2.754,2.754,0,0,1,.9.249,2.443,2.443,0,0,1,.664.468,1.838,1.838,0,0,1,.4.611,1.813,1.813,0,0,1,.136.7,2.1,2.1,0,0,1-.163.868,2.145,2.145,0,0,1-.453.636,2.743,2.743,0,0,1-1.119.619,5.33,5.33,0,0,1-1.474.2,4.158,4.158,0,0,1-1.4-.234,2.877,2.877,0,0,1-1.09-.665,3.183,3.183,0,0,1-.537-.765,2.871,2.871,0,0,1-.278-.929l-.049-.363h-1.8l.043.457a4.517,4.517,0,0,0,.416,1.5,4.742,4.742,0,0,0,.844,1.239,4.313,4.313,0,0,0,1.7,1.116,6.19,6.19,0,0,0,2.148.363,7.121,7.121,0,0,0,2.166-.323,4.491,4.491,0,0,0,1.727-1.022,4.087,4.087,0,0,0,.806-1.12,3.885,3.885,0,0,0,.048-2.975" transform="translate(-345.802 -370.556)" fill="#fff"/>
  <path id="Path_9551" data-name="Path 9551" d="M453.338,388.455h1.177l5.172-13.48h-1.35l-4.4,11.561-4.5-11.561h-9.851V376.2h4.231v12.251H445.1V376.2h3.484Z" transform="translate(-330.324 -370.517)" fill="#fff"/>
  <path id="Path_9552" data-name="Path 9552" d="M408.289,378.259v10.057l1.784-1.184V374.918l-7.8,4.345v2.348Z" transform="translate(-341.209 -370.533)" fill="#fff"/>
  <path id="Path_9553" data-name="Path 9553" d="M356.1,380.642a1.535,1.535,0,0,1-1.051-1.581V378.9c0-1.08.61-1.678,1.833-1.678h.606c.967,0,1.563.416,1.563,1.417a.406.406,0,0,1-.444.444.416.416,0,0,1-.444-.444c0-.394-.28-.568-.674-.568h-.606c-.664,0-.947.252-.947.829v.164a.754.754,0,0,0,.524.741l1.723.619a1.566,1.566,0,0,1,1.108,1.626v.337a1.635,1.635,0,0,1-1.83,1.773h-.907c-.964,0-1.559-.413-1.559-1.417a.4.4,0,0,1,.443-.442.411.411,0,0,1,.439.442c0,.406.284.57.677.57h.907a.835.835,0,0,0,.953-.926v-.337a.726.726,0,0,0-.483-.762Z" transform="translate(-354.997 -369.862)" fill="#fff"/>
  <path id="Path_9554" data-name="Path 9554" d="M361.244,378.636a1.425,1.425,0,0,1,1.542,1.485v3.085a.416.416,0,0,1-.443.443h-1.775c-.885,0-1.456-.413-1.456-1.3v-.741c0-.885.571-1.29,1.456-1.29h1.35v-.183a.611.611,0,0,0-.674-.685H360a.406.406,0,1,1,0-.811Zm.674,4.2v-1.715h-1.35c-.4,0-.589.194-.589.5v.722c0,.289.194.492.589.492Z" transform="translate(-353.796 -369.449)" fill="#fff"/>
  <path id="Path_9555" data-name="Path 9555" d="M367.681,380.391a.814.814,0,0,0-.915-.925h-.55V383.3a.435.435,0,1,1-.871,0v-3.835h-1.463V383.3a.434.434,0,1,1-.868,0v-4.22a.4.4,0,0,1,.437-.443h3.316a1.593,1.593,0,0,1,1.781,1.753v2.91a.433.433,0,1,1-.867,0Z" transform="translate(-352.659 -369.448)" fill="#fff"/>
  <path id="Path_9556" data-name="Path 9556" d="M369.663,383.767c-.886,0-1.416-.358-1.416-1.166,0-.251.1-.453.43-.453s.407.2.426.453c.01.221.211.386.559.386h.779c.464,0,.606-.232.606-.522v-.337a.412.412,0,0,0-.353-.425l-1.515-.422a1.117,1.117,0,0,1-.876-1.186v-.23c0-.887.5-1.3,1.465-1.3h.539c.887,0,1.42.355,1.42,1.165,0,.251-.1.452-.428.452s-.412-.2-.433-.452c-.01-.223-.2-.386-.55-.386h-.548c-.471,0-.616.231-.616.522v.23a.423.423,0,0,0,.354.425l1.5.413a1.115,1.115,0,0,1,.887,1.195v.337c0,.887-.51,1.3-1.457,1.3Z" transform="translate(-351.132 -369.47)" fill="#fff"/>
  <path id="Path_9557" data-name="Path 9557" d="M372.837,381.916a.815.815,0,0,0,.916.925h1.156v-3.836a.4.4,0,0,1,.433-.443.407.407,0,0,1,.434.443v4.224a.4.4,0,0,1-.434.44h-1.589a1.594,1.594,0,0,1-1.784-1.753v-2.911a.4.4,0,0,1,.431-.443.4.4,0,0,1,.437.443Z" transform="translate(-350.047 -369.47)" fill="#fff"/>
  <path id="Path_9558" data-name="Path 9558" d="M378.96,380.391a.815.815,0,0,0-.917-.925h-1.155V383.3a.4.4,0,0,1-.434.444.407.407,0,0,1-.433-.444v-4.22a.4.4,0,0,1,.433-.443h1.589a1.591,1.591,0,0,1,1.783,1.753v2.91a.433.433,0,1,1-.865,0Z" transform="translate(-348.865 -369.448)" fill="#fff"/>
  <path id="Path_9559" data-name="Path 9559" d="M383.744,384.179a1.712,1.712,0,0,1-1.813,1.879h-1.077a.383.383,0,0,1-.425-.415.391.391,0,0,1,.425-.413h1.077c.65,0,.948-.434.948-1.051v-.531h-1.168a1.586,1.586,0,0,1-1.775-1.754v-1.368a1.711,1.711,0,0,1,1.806-1.89h1.56a.409.409,0,0,1,.442.444Zm-2-4.712c-.647,0-.936.444-.936,1.059v1.368a.807.807,0,0,0,.905.926h1.168v-3.353Z" transform="translate(-347.723 -369.449)" fill="#fff"/>
</svg>
