<svg id="Group_3868" data-name="Group 3868" xmlns="http://www.w3.org/2000/svg" xmlns:xlink="http://www.w3.org/1999/xlink" width="31.871" height="25.675" viewBox="0 0 31.871 25.675">
  <defs>
    <clipPath id="clip-path">
      <rect id="Rectangle_2869" data-name="Rectangle 2869" width="31.871" height="25.675" fill="#717171"/>
    </clipPath>
  </defs>
  <g id="Group_3867" data-name="Group 3867" clip-path="url(#clip-path)">
    <path id="Path_11583" data-name="Path 11583" d="M98.282,37.065a22.7,22.7,0,0,0-8.057-6.724,16.533,16.533,0,0,0-10.52-1.59,19.715,19.715,0,0,0-3.675,1.072l2.791,2.791A6.124,6.124,0,0,1,87.4,41.2l3.209,3.209a23.033,23.033,0,0,0,7.729-6.6c.245-.316.131-.494-.059-.739" transform="translate(-66.61 -24.948)" fill="#717171"/>
    <path id="Path_11584" data-name="Path 11584" d="M119.852,77.2c-2.476.031-3.113-.512-3.294-2.843a3.433,3.433,0,0,0-1.649.48l4.549,4.549a2.807,2.807,0,0,0,.393-2.186" transform="translate(-100.673 -65.147)" fill="#717171"/>
    <path id="Path_11585" data-name="Path 11585" d="M20.218,16.9,18.23,14.913,13.548,10.23,11.56,8.243l-3-3L3.317,0,2.178,1.139,7.055,6.016q-.195.111-.387.226t-.379.234a24.158,24.158,0,0,0-6.14,5.711.451.451,0,0,0,.02.687c.885.979,1.7,2.034,2.651,2.94a19.539,19.539,0,0,0,13.592,5.714c.7-.094,1.856-.166,2.975-.417.415-.093.822-.2,1.222-.315q.237-.069.47-.143t.461-.152l5.173,5.173,1.139-1.139-4.68-4.68ZM18.07,18.256a6.162,6.162,0,0,1-2.129.377,6.088,6.088,0,0,1-6.115-6.142,6.155,6.155,0,0,1,.377-2.1L12.615,12.8c0,.008,0,.016,0,.024a3.408,3.408,0,0,0,3.042,3.021,3.037,3.037,0,0,0,.6-.01L18.5,18.077c-.142.065-.286.125-.433.18" transform="translate(0)" fill="#717171"/>
  </g>
</svg>
