<svg xmlns="http://www.w3.org/2000/svg" width="46.069" height="71" viewBox="0 0 46.069 71">
  <path id="Path_10426" data-name="Path 10426" d="M752.224,427.816h-2.689V416.6a18.711,18.711,0,0,0-37.421,0v11.219h-2.689a1.636,1.636,0,0,0-1.635,1.635v17.912a21.525,21.525,0,0,0,21.522,21.526h3.021a21.526,21.526,0,0,0,21.526-21.526V429.451A1.636,1.636,0,0,0,752.224,427.816ZM718.276,416.6a12.548,12.548,0,0,1,25.1,0v11.219h-25.1Zm16.561,37.967H726.9l1.23-7.58a4.485,4.485,0,1,1,5.478,0Z" transform="translate(-707.79 -397.888)" fill="#3fa9f5"/>
</svg>
