<svg id="Group_992" data-name="Group 992" xmlns="http://www.w3.org/2000/svg" width="97.79" height="20.731" viewBox="0 0 97.79 20.731">
  <path id="Path_9608" data-name="Path 9608" d="M650.317,377.041c-.231.214-.471.428-.7.652a4.288,4.288,0,0,0,.486,6.912c.752.531.844,1,.415,1.68a36.868,36.868,0,0,1-2.139,3.236,2.786,2.786,0,0,1-3.619.837,4.77,4.77,0,0,0-4.237.045,2.523,2.523,0,0,1-3.051-.466c-2.868-2.964-4.314-6.469-3.553-10.615.616-3.353,4.47-5.431,7.289-3.774,1.039.611,2.036.186,3.042-.192A4.843,4.843,0,0,1,650.317,377.041Z" transform="translate(-633.715 -370.049)" fill="#e6e6e6"/>
  <path id="Path_9609" data-name="Path 9609" d="M658.811,391.215h-3.072c-.025-.42-.063-.8-.065-1.179-.005-5.522.017-11.044-.029-16.564-.006-.887.271-1.209,1.126-1.2,2.173.021,4.363-.165,6.513.057a5.155,5.155,0,0,1,4.817,4.624,5.726,5.726,0,0,1-3.626,6.378,39.8,39.8,0,0,1-5.665,1.014v6.87Zm.008-16.731c0,2.379-.021,4.381.028,6.381.005.223.42.638.619.624a13.033,13.033,0,0,0,3.475-.473,3.136,3.136,0,0,0,1.946-3.342,2.72,2.72,0,0,0-2.284-2.787A28.1,28.1,0,0,0,658.818,374.484Z" transform="translate(-627.319 -370.84)" fill="#e6e6e6"/>
  <path id="Path_9610" data-name="Path 9610" d="M669.513,391.364h-3.092V371.523H669.5v7.344a17.044,17.044,0,0,1,3.787-1.372c2.817-.322,4.818,1.174,5.037,3.983.256,3.249.059,6.533.059,9.9h-3.008c0-2.164.012-4.319-.006-6.475a16.853,16.853,0,0,0-.137-2.594A2.562,2.562,0,0,0,672.884,380a2.841,2.841,0,0,0-3.013,1.842,7.182,7.182,0,0,0-.344,2.2C669.487,386.446,669.513,388.851,669.513,391.364Z" transform="translate(-624.176 -371.043)" fill="#e6e6e6"/>
  <path id="Path_9611" data-name="Path 9611" d="M690.865,383.071c-.038,5.248-3.919,8.339-8.962,7.1-3.216-.788-5.093-3.754-4.81-7.6a6.7,6.7,0,0,1,5.967-6.476c3.9-.331,6.717,1.51,7.555,4.985A16.964,16.964,0,0,1,690.865,383.071Zm-3.109.158a18.074,18.074,0,0,0-1-3.02,3.113,3.113,0,0,0-5.515-.251,6.415,6.415,0,0,0,.012,6.62,2.954,2.954,0,0,0,5.05.185A17.566,17.566,0,0,0,687.756,383.229Z" transform="translate(-621.072 -369.719)" fill="#e6e6e6"/>
  <path id="Path_9612" data-name="Path 9612" d="M711.027,387.358l.563,2.211c-3.115,1.035-6.144,1.43-9-.35-2.474-1.544-2.982-4.069-2.747-6.758.377-4.3,3.276-6.754,7.4-6.361a5.318,5.318,0,0,1,4.919,4.955,21.437,21.437,0,0,1,.021,2.92h-9C702.761,387.423,705.7,388.693,711.027,387.358Zm-1.857-5.615c-.072-2.311-1.293-3.575-3.152-3.413a3.1,3.1,0,0,0-2.812,3.413Z" transform="translate(-614.442 -369.719)" fill="#e6e6e6"/>
  <path id="Path_9613" data-name="Path 9613" d="M692.212,390.113h-3.091V376.4h2.613l.234,1.692c.359-.313.625-.561.908-.789a5.361,5.361,0,0,1,5.385-.862,4.1,4.1,0,0,1,2.86,3.876c.147,3.22.041,6.451.041,9.752h-3.007c-.023-.4-.068-.818-.07-1.231-.005-2.171.006-4.343,0-6.514-.005-2.285-1.006-3.658-2.662-3.675-1.844-.019-3.156,1.454-3.2,3.689-.043,2.171-.013,4.343-.014,6.514Z" transform="translate(-617.556 -369.715)" fill="#e6e6e6"/>
  <path id="Path_9614" data-name="Path 9614" d="M651.145,376.318h2.973V390h-2.973Z" transform="translate(-628.632 -369.644)" fill="#e6e6e6"/>
  <path id="Path_9615" data-name="Path 9615" d="M644.6,371.151a4.3,4.3,0,0,1-4.217,4.775A4.338,4.338,0,0,1,644.6,371.151Z" transform="translate(-631.779 -371.151)" fill="#e6e6e6"/>
  <path id="Path_9616" data-name="Path 9616" d="M652.65,371.75a1.862,1.862,0,0,1,2.018,1.867,1.954,1.954,0,0,1-3.906,0A1.827,1.827,0,0,1,652.65,371.75Z" transform="translate(-628.744 -370.976)" fill="#e6e6e6"/>
</svg>
