<svg xmlns="http://www.w3.org/2000/svg" xmlns:xlink="http://www.w3.org/1999/xlink" width="1923" height="902.55" viewBox="0 0 1923 902.55">
  <defs>
    <clipPath id="clip-path">
      <rect id="Rectangle_184" data-name="Rectangle 184" width="1923" height="902.55" fill="none"/>
    </clipPath>
  </defs>
  <g id="Group_203" data-name="Group 203" clip-path="url(#clip-path)">
    <path id="Path_15" data-name="Path 15" d="M980.2,528.887l-19.867,16.638a.757.757,0,0,0,.529,1.281h1.276a.758.758,0,0,0,.529-1.281q-7.851-6.574-15.7-13.149l-3.638-3.047c-.737-.617-1.5-1.191-2.476-.679-2.714,1.422,1.64,4.063,2.64,4.9l15.432,12.924c.8.667,1.639,1.707,2.776,1.589a2.439,2.439,0,0,0,1.345-.726c.762-.63,1.515-1.268,2.271-1.9l7.567-6.337,8.6-7.2c.794-.665,2.052-1.479,1.315-2.664a1.754,1.754,0,0,0-2.442-.465.75.75,0,0,0,.757,1.295c.8-.486.079.107.013.184a6.179,6.179,0,0,1-.7.59l-1.232,1.031-3.015,2.524q-2.93,2.456-5.864,4.911l-5.863,4.911c-.791.663-2.289,2.476-3.4,2.082-.425-.151-.877-.734-1.232-1.032q-.819-.684-1.636-1.37-5.867-4.911-11.729-9.823l-2.838-2.376-1.325-1.109c-.1-.082-.735-.646-.756-.634.185-.116.975.632,1.094.73l5.745,4.812,13.242,11.09.531-1.28h-1.276l.531,1.28,19.867-16.638c.741-.621-.325-1.677-1.06-1.061" transform="translate(-31 28)" fill="#3fa9f5"/>
  </g>
</svg>
