<svg id="Group_993" data-name="Group 993" xmlns="http://www.w3.org/2000/svg" width="56.194" height="20.349" viewBox="0 0 56.194 20.349">
  <path id="Path_9617" data-name="Path 9617" d="M802.5,385.218c-.152.385-.292.771-.459,1.146a11.918,11.918,0,0,1-2.113,3.23,2.671,2.671,0,0,1-3.325.719,8.494,8.494,0,0,0-1.6-.482,3.605,3.605,0,0,0-1.949.273,11.11,11.11,0,0,1-1.491.49,2.049,2.049,0,0,1-1.758-.492,8.415,8.415,0,0,1-1.771-2.077,12.242,12.242,0,0,1-2.127-6.6,6.269,6.269,0,0,1,1.385-4.385,4.541,4.541,0,0,1,4.158-1.737,8.715,8.715,0,0,1,2.014.626,2.178,2.178,0,0,0,1.7-.012,7.723,7.723,0,0,1,2.262-.7,4.817,4.817,0,0,1,4.516,1.967,4.517,4.517,0,0,0-2.179,4.173A4.46,4.46,0,0,0,802.5,385.218Z" transform="translate(-785.911 -370.292)" fill="#e6e6e6"/>
  <path id="Path_9618" data-name="Path 9618" d="M829.9,380.58V374.1h1.661v15.819h-1.4l-.086-1.841a.841.841,0,0,0-.114.123,4.042,4.042,0,0,1-6.644.442,5.872,5.872,0,0,1-1.236-3.42,6.918,6.918,0,0,1,.821-4.02,4.229,4.229,0,0,1,4.048-2.293,3.358,3.358,0,0,1,2.84,1.532C829.806,380.473,829.829,380.5,829.9,380.58Zm.04,3.876-.057,0c0-.439.022-.881-.005-1.319a2.993,2.993,0,0,0-1.178-2.32,2.852,2.852,0,0,0-4.349,1.1,5.868,5.868,0,0,0-.1,5.15,2.8,2.8,0,0,0,3.353,1.677,2.858,2.858,0,0,0,2.158-2.307A14.1,14.1,0,0,0,829.941,384.457Z" transform="translate(-775.368 -370.61)" fill="#e6e6e6"/>
  <path id="Path_9619" data-name="Path 9619" d="M806.056,374.87c.6-.071,1.187-.158,1.779-.207a11.47,11.47,0,0,1,3.529.129,3.813,3.813,0,0,1,3.2,2.9,4.537,4.537,0,0,1-1.364,4.779,5.528,5.528,0,0,1-3.159,1.217,8.342,8.342,0,0,1-2.346-.081v6.168h-1.636Zm1.631,1.2v6.156a1.748,1.748,0,0,0,.329.07,18.647,18.647,0,0,0,2.01.035,3.1,3.1,0,0,0,3.056-3.149,2.815,2.815,0,0,0-1.571-2.847A6.688,6.688,0,0,0,807.687,376.069Z" transform="translate(-780.035 -370.468)" fill="#e6e6e6"/>
  <path id="Path_9620" data-name="Path 9620" d="M820.383,381.991a11.87,11.87,0,0,0-.172-1.272,2.018,2.018,0,0,0-2-1.635,4.754,4.754,0,0,0-2.844.685c-.027.017-.059.028-.115.056l-.388-1.108a5.363,5.363,0,0,1,1.793-.74,5.936,5.936,0,0,1,2.567-.067,3.207,3.207,0,0,1,2.614,2.76,8.876,8.876,0,0,1,.149,1.591c.021,1.671.006,3.344.023,5.017.005.515.066,1.031.1,1.564h-1.467l-.169-1.407c-.088.109-.145.174-.2.242a3.878,3.878,0,0,1-4.273,1.212,3.049,3.049,0,0,1-1.907-3.2,3.587,3.587,0,0,1,2.657-3.134,10.22,10.22,0,0,1,3.307-.515c.07,0,.138,0,.207-.006A.67.67,0,0,0,820.383,381.991Zm-.057,1.274a8.156,8.156,0,0,0-2.941.39,2.21,2.21,0,0,0-1.594,2.493,1.749,1.749,0,0,0,1.3,1.617,2.641,2.641,0,0,0,3.211-2.06A17.226,17.226,0,0,0,820.326,383.264Z" transform="translate(-777.694 -369.533)" fill="#e6e6e6"/>
  <path id="Path_9621" data-name="Path 9621" d="M802.208,388.786V378.007h1.6v10.779Z" transform="translate(-781.158 -369.472)" fill="#e6e6e6"/>
  <path id="Path_9622" data-name="Path 9622" d="M796.382,371.4c.281,2.387-1.891,4.854-4.036,4.659C791.859,374.122,794.182,371.431,796.382,371.4Z" transform="translate(-784.053 -371.399)" fill="#e6e6e6"/>
  <path id="Path_9623" data-name="Path 9623" d="M802,375.9a1.075,1.075,0,0,1,1.09-1.1,1.119,1.119,0,1,1-1.09,1.1Z" transform="translate(-781.218 -370.409)" fill="#e6e6e6"/>
</svg>
