<svg id="Group_1111" data-name="Group 1111" xmlns="http://www.w3.org/2000/svg" width="30.171" height="30.175" viewBox="0 0 30.171 30.175">
  <path id="Path_9829" data-name="Path 9829" d="M81.419,127.754A15.085,15.085,0,1,0,77,117.087,14.983,14.983,0,0,0,81.419,127.754Zm1.854-19.48a12.465,12.465,0,1,1-3.65,8.813A12.383,12.383,0,0,1,83.273,108.274Z" transform="translate(-77 -102)" fill="#8c8c8c"/>
  <path id="Path_9830" data-name="Path 9830" d="M95.429,126.388a1.312,1.312,0,1,0,1.926-1.781l-5.211-5.64,5.211-5.643a1.312,1.312,0,1,0-1.926-1.78l-6.034,6.532a1.314,1.314,0,0,0,0,1.781Z" transform="translate(-79.481 -103.878)" fill="#8c8c8c"/>
</svg>
