<svg xmlns="http://www.w3.org/2000/svg" width="33.332" height="30.053" viewBox="0 0 33.332 30.053">
  <g id="Group_3873" data-name="Group 3873" transform="translate(0.471 0.476)">
    <g id="Group_915" data-name="Group 915" transform="translate(0 0)">
      <path id="Path_5161" data-name="Path 5161" d="M551.709,451.471a.269.269,0,0,1-.073-.251,3.323,3.323,0,0,0-.043-2.139,2.7,2.7,0,0,0-2.271-1.9,13.257,13.257,0,0,0-1.769-.035h-1.277v.018c-.755,0-1.591-.008-1.863-.013-1.761-.033.251-2.235-.079-7.775-.187-3.173-3.1-4.166-4.042-1.865a15.116,15.116,0,0,0-.623,2.012c-.743,2.907-2.212,6-4.721,7.689a6.523,6.523,0,0,1-3.282,1.107h-.114a.6.6,0,0,0-.6.6v13.784a.6.6,0,0,0,.6.6h.114c4.149.433,4.1,2,8.7,2.04q2.155.015,4.313.008c.809,0,1.62-.008,2.428,0a2.733,2.733,0,0,0,2.44-1.221,3.2,3.2,0,0,0,.426-2.77c-.038-.137-.043-.218.119-.294a2.862,2.862,0,0,0,1.561-1.875,3.281,3.281,0,0,0-.046-1.994C553.919,455.434,552.429,451.894,551.709,451.471Z" transform="translate(-520.466 -436.255)" fill="#3fa9f5" stroke="#fff" stroke-miterlimit="10" stroke-width="0.942" fill-rule="evenodd"/>
      <rect id="Rectangle_799" data-name="Rectangle 799" width="9.44" height="15.926" rx="0.447" transform="translate(0 11.598)" fill="#3fa9f5" stroke="#fff" stroke-miterlimit="10" stroke-width="0.942"/>
    </g>
  </g>
</svg>
