<svg xmlns="http://www.w3.org/2000/svg" width="31.877" height="31.427" viewBox="0 0 31.877 31.427">
  <g id="Group_61" data-name="Group 61" transform="translate(-164.234 1670.95)">
    <path id="Path_123" data-name="Path 123" d="M179.542-1651.139c-1.061-.112-2.1.051-3.111-.1v-4.262h3.161c0-.432,0-.781,0-1.13a14.025,14.025,0,0,1,.547-3.769,5.356,5.356,0,0,1,4.466-4.077,19.433,19.433,0,0,1,3.883-.193,3.321,3.321,0,0,1,.488.078,17.617,17.617,0,0,1-.063,4.294c-.192-.014-.392-.031-.592-.042a6.334,6.334,0,0,0-2.561.307,1.95,1.95,0,0,0-1.289,1.312,13.393,13.393,0,0,0-.185,3.267h4.735v4.3h-4.706v11.132c.254-.064.451-.1.639-.162,5.937-2.039,9.682-6.066,10.859-12.274a14.766,14.766,0,0,0-3.7-13.121,15.516,15.516,0,0,0-14.69-5.135,15.216,15.216,0,0,0-8.834,4.65,15.074,15.074,0,0,0-4.338,10,15.4,15.4,0,0,0,5.219,12.523,15.263,15.263,0,0,0,7.691,3.79,6.873,6.873,0,0,0,2.378.183Z" fill="#fff"/>
  </g>
</svg>
