<svg xmlns="http://www.w3.org/2000/svg" width="88.151" height="18.667" viewBox="0 0 88.151 18.667">
  <g id="Group_1000" data-name="Group 1000" transform="translate(0 0)">
    <g id="Group_998" data-name="Group 998">
      <path id="Path_9631" data-name="Path 9631" d="M665.724,534.774h-4.813V520.705h4.731v5.444c.283-.226.451-.337.592-.477,1.51-1.5,3.008-3.013,4.53-4.5a1.427,1.427,0,0,1,.811-.469c3.148-.034,6.3-.021,9.574-.021,0,.4,0,.749,0,1.1.028,2.57-.006,5.145.11,7.713.066,1.463.668,1.905,1.883,1.87a2.521,2.521,0,0,0,2.294-2.267c-.118-2.758-.037-5.524-.037-8.356h4.782v14.03c-1.567.322-2.042-1.318-3.206-1.741a6.8,6.8,0,0,1-5.7,2.018c-3.166-.362-4.907-2.245-4.941-5.456-.025-2.324,0-4.647,0-6.972v-1.06l-5.993,6.132,7.174,7.123c-2.024,0-3.891.018-5.754-.022-.249-.005-.527-.264-.732-.464-1.542-1.509-3.069-3.033-4.6-4.549-.191-.189-.394-.365-.7-.651Z" transform="translate(-630.886 -516.761)" fill="#fff"/>
      <path id="Path_9632" data-name="Path 9632" d="M648.685,528.653l5.075,7.06a22.98,22.98,0,0,0-3.042.023,3.368,3.368,0,0,1-3.83-1.9c-.643-1.179-1.609-2.179-2.326-3.323a1.636,1.636,0,0,0-2.087-.77v5.893h-4.809V517.729c.015-.016.055-.085.094-.084,2.787.036,5.577.014,8.36.146a6.149,6.149,0,0,1,3.635,1.665,5.323,5.323,0,0,1-.068,8.427C649.37,528.144,649.036,528.384,648.685,528.653Zm-6.195-8v5.977c1.553.134,3.011.12,3.963-1.323a2.864,2.864,0,0,0,.045-3.282C645.555,520.51,644.069,520.514,642.49,520.653Z" transform="translate(-637.666 -517.645)" fill="#fff"/>
      <path id="Path_9633" data-name="Path 9633" d="M648.632,527.768a7.421,7.421,0,1,1,7.423,7.4A7.322,7.322,0,0,1,648.632,527.768Zm4.813-.129.225.086a4.828,4.828,0,0,0,.914,3.118,1.693,1.693,0,0,0,2.914.019,5.42,5.42,0,0,0-.008-6.133,1.649,1.649,0,0,0-2.891.059A17.258,17.258,0,0,0,653.445,527.639Z" transform="translate(-634.467 -516.831)" fill="#fff"/>
    </g>
    <g id="Group_999" data-name="Group 999" transform="translate(62.095 3.81)">
      <path id="Path_9634" data-name="Path 9634" d="M690.148,535.452V523.109H685.74v-2.514h11.807v2.514h-4.4v12.343Z" transform="translate(-685.74 -520.595)" fill="#fff"/>
      <path id="Path_9635" data-name="Path 9635" d="M700.513,535.452,695.2,520.595h3.254l3.76,11,3.639-11h3.181l-5.32,14.857Z" transform="translate(-682.98 -520.595)" fill="#fff"/>
    </g>
  </g>
</svg>
