<svg xmlns="http://www.w3.org/2000/svg" width="92.481" height="16.719" viewBox="0 0 92.481 16.719">
  <g id="Group_2794" data-name="Group 2794" transform="translate(-739.308 -553.406)">
    <g id="Group_990" data-name="Group 990" transform="translate(739.308 553.406)">
      <g id="Group_989" data-name="Group 989" transform="translate(0)">
        <path id="Path_9599" data-name="Path 9599" d="M559.572,424.078v-6.613h2.357v16.19c-2,.251-2.189.161-2.441-1.168a4.713,4.713,0,0,1-4.207,1.39,4.993,4.993,0,0,1-3.126-1.837,6.035,6.035,0,0,1,.349-7.926C554.422,422.176,557.038,422.115,559.572,424.078Zm-6.237,4.237a3.156,3.156,0,0,0,3.25,3.417,3.209,3.209,0,0,0,3.184-3.508,3.154,3.154,0,0,0-3.277-3.395C554.567,424.837,553.326,426.207,553.335,428.315Z" transform="translate(-486.647 -417.226)" fill="#fff"/>
        <path id="Path_9600" data-name="Path 9600" d="M529.718,424.087v-6.619h2.357v16.125c-1.664.424-2.146.223-2.457-1.1a4.709,4.709,0,0,1-4.2,1.386,4.95,4.95,0,0,1-3.13-1.832,6.066,6.066,0,0,1,.357-7.944C524.563,422.175,527.2,422.124,529.718,424.087Zm-3.043.741a3.122,3.122,0,0,0-3.2,3.438,3.157,3.157,0,0,0,3.2,3.466,3.457,3.457,0,0,0,0-6.9Z" transform="translate(-495.355 -417.225)" fill="#fff"/>
        <path id="Path_9601" data-name="Path 9601" d="M509.844,422.926l.063-1.213h2.268v10.72c-1.629.457-2.211.205-2.351-1.142a4.823,4.823,0,0,1-4.394,1.4A5.046,5.046,0,0,1,502.3,430.7a6.116,6.116,0,0,1,.518-7.791A4.954,4.954,0,0,1,509.844,422.926Zm-2.982.74a3.221,3.221,0,0,0-3.295,3.4,3.265,3.265,0,0,0,3.219,3.5,3.459,3.459,0,0,0,.076-6.9Z" transform="translate(-501.141 -416.062)" fill="#fff"/>
        <path id="Path_9602" data-name="Path 9602" d="M542.8,421.451a5.658,5.658,0,1,1,.1,11.316,5.659,5.659,0,1,1-.1-11.316Zm-3.22,5.625a3.239,3.239,0,0,0,3.237,3.482,3.312,3.312,0,0,0,3.291-3.469,3.273,3.273,0,0,0-3.234-3.414A3.193,3.193,0,0,0,539.582,427.076Z" transform="translate(-490.656 -416.064)" fill="#fff"/>
        <path id="Path_9603" data-name="Path 9603" d="M514.3,432.491c-2.366.269-2.466.185-2.466-1.987v-8.756h2.395l.145,1.133a4.179,4.179,0,0,1,3.538-1.418,3.888,3.888,0,0,1,3.81,3.949c.138,2.339.031,4.693.031,7.011-.1.061-.148.114-.2.116-2.2.145-2.191.145-2.2-2.078-.01-1.568-.016-3.136-.089-4.7a2.168,2.168,0,0,0-1.494-2.051,2.407,2.407,0,0,0-2.718.936,7,7,0,0,0-.716,2.64C514.225,428.993,514.3,430.714,514.3,432.491Z" transform="translate(-498.022 -416.064)" fill="#fff"/>
        <path id="Path_9604" data-name="Path 9604" d="M531.746,421.695H534.1v1.66a3.41,3.41,0,0,1,3.767-1.751v2.384c-2.585-.253-3.754.825-3.761,3.432-.005,1.66,0,3.32,0,5.12a8.909,8.909,0,0,1-1.7-.032.978.978,0,0,1-.632-.688C531.732,428.471,531.746,425.122,531.746,421.695Z" transform="translate(-492.216 -416.044)" fill="#fff"/>
        <path id="Path_9605" data-name="Path 9605" d="M549.792,432.443c-2.3.217-2.331.189-2.331-1.962v-8.812h2.331Z" transform="translate(-487.632 -416)" fill="#fff"/>
        <path id="Path_9606" data-name="Path 9606" d="M548.782,420.512a1.618,1.618,0,0,1-1.616-1.606,1.6,1.6,0,0,1,1.586-1.626,1.578,1.578,0,0,1,1.571,1.55A1.613,1.613,0,0,1,548.782,420.512Z" transform="translate(-487.718 -417.28)" fill="#fff"/>
      </g>
    </g>
    <g id="Group_994" data-name="Group 994" transform="translate(819.053 558.104)">
      <path id="Path_9624" data-name="Path 9624" d="M566.967,431.484l.216,1.321a5.6,5.6,0,0,1-1.129.133,2.569,2.569,0,0,1-1.263-.257,1.443,1.443,0,0,1-.632-.678,5.364,5.364,0,0,1-.182-1.764v-5.076h-1.1V424h1.1v-2.184l1.487-.9V424h1.5v1.164h-1.5v5.159a2.607,2.607,0,0,0,.079.823.621.621,0,0,0,.257.291.992.992,0,0,0,.511.107A4.873,4.873,0,0,0,566.967,431.484Z" transform="translate(-562.879 -420.917)" fill="#fff"/>
      <path id="Path_9625" data-name="Path 9625" d="M569.831,432.126l-3.356-8.823h1.578l1.894,5.284q.308.856.564,1.777.2-.7.557-1.678l1.961-5.384h1.537l-3.339,8.823Z" transform="translate(-561.83 -420.221)" fill="#fff"/>
    </g>
  </g>
</svg>
