<svg id="Group_991" data-name="Group 991" xmlns="http://www.w3.org/2000/svg" width="41.057" height="20.028" viewBox="0 0 41.057 20.028">
  <path id="Path_9607" data-name="Path 9607" d="M944.567,378.1a19.641,19.641,0,0,0-2.384-1.48,4.624,4.624,0,0,0-3.909.22,2.938,2.938,0,0,1-2.679.018,4.777,4.777,0,0,0-6.825,4.051,11.764,11.764,0,0,0,3.237,9.631,2.419,2.419,0,0,0,3.057.651,4.717,4.717,0,0,1,4.2.008,2.452,2.452,0,0,0,2.954-.552,11.086,11.086,0,0,0,2.678-4.436C941.6,384.429,941.333,380.466,944.567,378.1Zm10.556-2.439c.118.336.2.592.295.845q2.371,6.551,4.742,13.1c.633,1.755.623,1.758,2.534,1.758a3.568,3.568,0,0,1,.576.005c.508.088.716-.155.884-.61q2.662-7.231,5.36-14.447c.078-.212.128-.435.211-.719-.763,0-1.423.036-2.076-.012-.513-.037-.707.172-.863.633-.842,2.484-1.728,4.952-2.585,7.432-.623,1.8-1.223,3.61-1.869,5.521-.078-.221-.121-.337-.159-.456-1.192-3.662-2.375-7.328-3.579-10.986-.741-2.249-.757-2.244-3.141-2.121C955.371,375.611,955.291,375.634,955.123,375.663Zm-3.593-.052V372.1c-.753.309-1.4.53-2,.845a1.022,1.022,0,0,0-.473.691,19.755,19.755,0,0,0-.022,1.988h-1.886v1.852h1.785c0,1.906-.01,3.707,0,5.509.016,2-.012,4,.1,5.987a2.518,2.518,0,0,0,2.32,2.563,15.557,15.557,0,0,0,2.862-.173.825.825,0,0,0,.5-.574,7.9,7.9,0,0,0,.023-1.369,6.069,6.069,0,0,0-.608,0c-2.1.247-2.574-.165-2.575-2.246q0-2.5,0-5.007v-4.66h2.887v-1.9Zm-14.707.413c2.492.2,4.372-2.892,3.865-4.5A4.232,4.232,0,0,0,936.823,376.024Z" transform="translate(-928.667 -371.523)" fill="#e6e6e6"/>
</svg>
