<svg id="Group_988" data-name="Group 988" xmlns="http://www.w3.org/2000/svg" width="110.218" height="24.382" viewBox="0 0 110.218 24.382">
  <g id="Group_986" data-name="Group 986">
    <path id="Path_9587" data-name="Path 9587" d="M496.416,376.4v2.253c0,2.492,0,4.984,0,7.476a1.578,1.578,0,0,0,1.615,1.653c.342.005.685,0,1.08,0,0,.306,0,.575,0,.845.013.907-.009,1.816.057,2.719a1.4,1.4,0,0,0,1.568,1.272,1.435,1.435,0,0,0,1.39-1.425c.017-.734.009-1.469.01-2.2q0-.595,0-1.188h2.037v.487c0,.935-.008,1.87.005,2.805a1.448,1.448,0,0,0,1.469,1.527,1.469,1.469,0,0,0,1.546-1.5c.026-.806.01-1.613.013-2.419v-.916h.871a1.613,1.613,0,0,0,1.817-1.8q0-4.559.005-9.118V376.4Z" transform="translate(-492.797 -368.243)" fill="#fff"/>
    <path id="Path_9588" data-name="Path 9588" d="M506.515,372.264c.315-.583.632-1.146.921-1.722a1.3,1.3,0,0,0,.047-.449c-.138.084-.331.134-.4.256-.336.564-.639,1.148-.96,1.737a7.476,7.476,0,0,0-5.908,0c-.328-.6-.633-1.19-.966-1.758-.068-.115-.248-.163-.376-.242a1.128,1.128,0,0,0,.017.44c.3.588.619,1.16.93,1.735-2.365,1.541-3.535,3.392-3.42,5.411h13.556A6.218,6.218,0,0,0,506.515,372.264Zm-6.465,2.99a.546.546,0,0,1-.521-.615c.023-.353.236-.5.575-.523a.567.567,0,0,1,.536.566A.6.6,0,0,1,500.05,375.254Zm6.755-.523a.535.535,0,0,1-.572.518.573.573,0,0,1-.54-.575.579.579,0,0,1,.6-.559A.541.541,0,0,1,506.805,374.731Z" transform="translate(-492.805 -370.085)" fill="#fff"/>
    <path id="Path_9589" data-name="Path 9589" d="M510.328,377.726a1.507,1.507,0,1,0-3.011.045c-.005,1.023,0,2.045,0,3.068s-.012,2.045.008,3.068a1.967,1.967,0,0,0,.167.787,1.472,1.472,0,0,0,1.666.778,1.538,1.538,0,0,0,1.172-1.567Q510.349,380.815,510.328,377.726Z" transform="translate(-489.619 -368.308)" fill="#fff"/>
    <path id="Path_9590" data-name="Path 9590" d="M496.64,377.772a1.506,1.506,0,1,0-3.01-.083q-.033,3.131,0,6.263a1.505,1.505,0,1,0,3.007-.048c.008-1.008,0-2.015,0-3.022C496.642,379.845,496.644,378.809,496.64,377.772Z" transform="translate(-493.614 -368.308)" fill="#fff"/>
  </g>
  <g id="Group_987" data-name="Group 987" transform="translate(23.81 1.523)">
    <path id="Path_9591" data-name="Path 9591" d="M579.112,379.066v-7.59h2.706v18.583c-2.291.287-2.514.185-2.8-1.341a5.416,5.416,0,0,1-4.83,1.6,5.734,5.734,0,0,1-3.588-2.108,6.929,6.929,0,0,1,.4-9.1C573.2,376.883,576.2,376.813,579.112,379.066Zm-7.158,4.864a3.621,3.621,0,0,0,3.73,3.92,3.685,3.685,0,0,0,3.654-4.026,3.623,3.623,0,0,0-3.761-3.9C573.367,379.938,571.942,381.511,571.954,383.93Z" transform="translate(-495.411 -371.202)" fill="#fff"/>
    <path id="Path_9592" data-name="Path 9592" d="M544.847,379.076v-7.6h2.706v18.508c-1.909.486-2.463.256-2.82-1.268a5.4,5.4,0,0,1-4.82,1.59,5.679,5.679,0,0,1-3.592-2.1,6.964,6.964,0,0,1,.409-9.118C538.931,376.882,541.958,376.825,544.847,379.076Zm-3.493.85c-2.227,0-3.675,1.554-3.676,3.947s1.469,3.977,3.673,3.977a3.968,3.968,0,0,0,0-7.924Z" transform="translate(-505.407 -371.201)" fill="#fff"/>
    <path id="Path_9593" data-name="Path 9593" d="M522.037,377.745l.072-1.394h2.6v12.3c-1.869.524-2.537.235-2.7-1.311a5.538,5.538,0,0,1-5.045,1.6,5.8,5.8,0,0,1-3.591-2.286,7.022,7.022,0,0,1,.6-8.942A5.686,5.686,0,0,1,522.037,377.745Zm-3.424.849a3.7,3.7,0,0,0-3.782,3.9,3.748,3.748,0,0,0,3.7,4.017,3.97,3.97,0,0,0,.087-7.922Z" transform="translate(-512.048 -369.866)" fill="#fff"/>
    <path id="Path_9594" data-name="Path 9594" d="M559.865,376.051a6.494,6.494,0,1,1,.116,12.988,6.5,6.5,0,1,1-.116-12.988Zm-3.7,6.457a3.716,3.716,0,0,0,3.714,4,3.8,3.8,0,0,0,3.778-3.982,3.757,3.757,0,0,0-3.711-3.919A3.665,3.665,0,0,0,556.17,382.508Z" transform="translate(-500.013 -369.868)" fill="#fff"/>
    <path id="Path_9595" data-name="Path 9595" d="M527.154,388.722c-2.716.309-2.83.212-2.83-2.28v-10.05h2.747l.167,1.3a4.792,4.792,0,0,1,4.06-1.627,4.464,4.464,0,0,1,4.375,4.532c.158,2.684.035,5.385.035,8.046-.116.07-.171.13-.229.134-2.526.165-2.515.165-2.53-2.386-.012-1.8-.017-3.6-.1-5.4a2.487,2.487,0,0,0-1.715-2.355,2.76,2.76,0,0,0-3.118,1.076,8.032,8.032,0,0,0-.823,3.029C527.064,384.706,527.154,386.683,527.154,388.722Z" transform="translate(-508.467 -369.868)" fill="#fff"/>
    <path id="Path_9596" data-name="Path 9596" d="M547.175,376.331h2.7v1.905c1.153-1.7,2.494-2.377,4.322-2.011v2.738c-2.964-.292-4.306.947-4.315,3.938-.006,1.905,0,3.81,0,5.878a10.253,10.253,0,0,1-1.95-.037,1.129,1.129,0,0,1-.726-.792C547.159,384.108,547.175,380.265,547.175,376.331Z" transform="translate(-501.803 -369.845)" fill="#fff"/>
    <path id="Path_9597" data-name="Path 9597" d="M567.888,388.667c-2.638.249-2.676.216-2.676-2.251V376.3h2.676Z" transform="translate(-496.541 -369.795)" fill="#fff"/>
    <path id="Path_9598" data-name="Path 9598" d="M566.728,374.972a1.853,1.853,0,0,1-1.854-1.842,1.833,1.833,0,0,1,1.819-1.866,1.81,1.81,0,0,1,1.8,1.779A1.85,1.85,0,0,1,566.728,374.972Z" transform="translate(-496.64 -371.264)" fill="#fff"/>
  </g>
</svg>
