<svg xmlns="http://www.w3.org/2000/svg" width="40.397" height="25.248" viewBox="0 0 40.397 25.248">
  <g id="Group_2066" data-name="Group 2066" transform="translate(-435.772 -261.752)">
    <path id="Path_10752" data-name="Path 10752" d="M437.792,286.748a1.789,1.789,0,0,1-1.767-1.768V263.772a1.788,1.788,0,0,1,1.767-1.767h36.357a1.789,1.789,0,0,1,1.767,1.767V284.98a1.789,1.789,0,0,1-1.767,1.768Z" fill-rule="evenodd"/>
    <path id="Path_10753" data-name="Path 10753" d="M474.149,262.257a1.52,1.52,0,0,1,1.515,1.515V284.98a1.52,1.52,0,0,1-1.515,1.515H437.792a1.52,1.52,0,0,1-1.515-1.515V263.772a1.52,1.52,0,0,1,1.515-1.515Zm0-.5H437.792a2.026,2.026,0,0,0-2.02,2.02V284.98a2.026,2.026,0,0,0,2.02,2.02h36.357a2.026,2.026,0,0,0,2.02-2.02V263.772A2.026,2.026,0,0,0,474.149,261.752Z" fill="#e6e6e6"/>
    <path id="Path_10754" data-name="Path 10754" d="M448.446,283.516V282.3a.783.783,0,0,0-1.439-.429.69.69,0,0,0-.631-.354.609.609,0,0,0-.555.278v-.227h-.43v1.944h.43v-1.061a.446.446,0,0,1,.479-.5c.278,0,.43.177.43.5v1.086h.4v-1.086a.458.458,0,0,1,.479-.5c.278,0,.43.177.43.5v1.086h.4Zm6.312-1.944h-.681v-.581h-.429v.581h-.4v.378h.4v.884c0,.455.176.707.681.707a.931.931,0,0,0,.53-.151l-.126-.354a.708.708,0,0,1-.378.1c-.2,0-.278-.126-.278-.328v-.884h.681Zm3.586-.051a.572.572,0,0,0-.505.278v-.227h-.43v1.944h.43V282.43c0-.328.126-.505.4-.505a.451.451,0,0,1,.252.051l.126-.4a.755.755,0,0,0-.277-.051m-5.429.2a1.5,1.5,0,0,0-.782-.2c-.48,0-.808.227-.808.631,0,.329.227.505.656.581l.2.025c.227.026.328.1.328.2,0,.152-.151.228-.429.228a1.121,1.121,0,0,1-.656-.2l-.2.328a1.354,1.354,0,0,0,.833.252c.555,0,.884-.252.884-.631,0-.328-.253-.53-.682-.581l-.2-.025c-.177-.025-.328-.05-.328-.2s.126-.227.378-.227a1.228,1.228,0,0,1,.606.177l.2-.354Zm11.311-.2a.574.574,0,0,0-.505.278v-.227h-.429v1.944h.429V282.43c0-.328.127-.505.4-.505a.453.453,0,0,1,.253.051l.126-.4a1.046,1.046,0,0,0-.278-.051m-5.453,1.035a.974.974,0,0,0,1.035,1.01,1.125,1.125,0,0,0,.707-.227l-.2-.328a.772.772,0,0,1-.5.177.586.586,0,0,1-.581-.632.6.6,0,0,1,.581-.631.772.772,0,0,1,.5.177l.2-.328a1.08,1.08,0,0,0-1.742.782m3.964,0V281.6h-.429v.227a.7.7,0,0,0-.606-.278.957.957,0,0,0-.96,1.01.971.971,0,0,0,.96,1.01.7.7,0,0,0,.606-.277v.227h.429Zm-1.566,0a.6.6,0,0,1,.581-.631.634.634,0,0,1,0,1.263.6.6,0,0,1-.581-.632m-5.1-1.035a1.011,1.011,0,0,0,.026,2.02,1.1,1.1,0,0,0,.782-.278l-.2-.3a.93.93,0,0,1-.555.2.531.531,0,0,1-.581-.479h1.439v-.152a.917.917,0,0,0-.909-1.01m0,.379a.464.464,0,0,1,.48.48h-1.01a.525.525,0,0,1,.53-.48m10.579.656v-1.742h-.429v1.01a.7.7,0,0,0-.606-.278.957.957,0,0,0-.959,1.01.971.971,0,0,0,.959,1.01.7.7,0,0,0,.606-.277v.227h.429Zm-1.565,0a.6.6,0,0,1,.581-.631.634.634,0,0,1,0,1.263.6.6,0,0,1-.581-.632m-14.265,0V281.6h-.4v.227a.7.7,0,0,0-.606-.278.957.957,0,0,0-.96,1.01.972.972,0,0,0,.96,1.01.7.7,0,0,0,.606-.277v.227h.429v-.96Zm-1.566,0a.6.6,0,0,1,.581-.631.634.634,0,0,1,0,1.263.615.615,0,0,1-.581-.632m18.1.682a.094.094,0,0,1,.076.025.055.055,0,0,1,.05.051c.026.025.026.05.051.05,0,.026.025.051.025.076a.094.094,0,0,1-.025.076.054.054,0,0,1-.051.05c-.025.026-.05.026-.05.051-.025,0-.051.025-.076.025a.1.1,0,0,1-.076-.025.054.054,0,0,1-.05-.051l-.051-.05c0-.025-.025-.051-.025-.076a.1.1,0,0,1,.025-.076.055.055,0,0,1,.051-.05c.025-.025.05-.025.05-.051a.1.1,0,0,1,.076-.025m0,.354h.051c.025,0,.025-.026.05-.026.025-.025.025-.025.025-.05v-.1c0-.025-.025-.025-.025-.051-.025-.025-.025-.025-.05-.025h-.1c-.026,0-.026.025-.051.025-.025.026-.025.026-.025.051v.1c0,.025.025.025.025.05.025.026.025.026.051.026,0-.026.025,0,.05,0m0-.253c.025,0,.051,0,.051.025a.092.092,0,0,1,.025.051c0,.025,0,.025-.025.025a.092.092,0,0,1-.051.025l.051.076h-.051l-.05-.076h-.026v.076h-.05v-.177h.126Zm-.05.025v.051h.075v-.051Z" fill="#fff"/>
    <path id="Path_10755" data-name="Path 10755" d="M452.764,266.8h6.388v11.487h-6.388Z" fill="#f16522"/>
    <path id="Path_10756" data-name="Path 10756" d="M453.193,272.533a7.292,7.292,0,0,1,2.777-5.731,7.21,7.21,0,0,0-4.519-1.566,7.3,7.3,0,1,0,4.519,13.028,7.218,7.218,0,0,1-2.777-5.731" fill="#e41b24"/>
    <path id="Path_10757" data-name="Path 10757" d="M467.786,272.533a7.3,7.3,0,0,1-11.816,5.731,7.3,7.3,0,0,0,0-11.462,7.215,7.215,0,0,1,4.52-1.566,7.317,7.317,0,0,1,7.3,7.3m-.707,4.545v-.228h.1v-.05h-.252v.05h.1v.228Zm.48,0V276.8h-.076l-.075.2-.076-.2h-.076v.278h.051v-.2l.075.176h.051l.076-.176v.2Z" fill="#f89e1c"/>
  </g>
</svg>
