<svg xmlns="http://www.w3.org/2000/svg" width="16.848" height="16.848" viewBox="0 0 16.848 16.848">
  <g id="Group_2629" data-name="Group 2629" transform="translate(-628.14 -233.403)">
    <path id="Path_10637" data-name="Path 10637" d="M272.576-2931.478a8.424,8.424,0,0,0-8.424,8.424,8.425,8.425,0,0,0,8.424,8.424,8.425,8.425,0,0,0,8.424-8.424A8.424,8.424,0,0,0,272.576-2931.478Zm0,12.618a4.194,4.194,0,0,1-4.194-4.194,4.2,4.2,0,0,1,4.194-4.2,4.2,4.2,0,0,1,4.2,4.2A4.194,4.194,0,0,1,272.576-2918.86Z" transform="translate(363.988 3164.881)" fill="#009ad8"/>
    <g id="Group_1916" data-name="Group 1916" transform="translate(363.988 3164.881)">
      <path id="Path_10638" data-name="Path 10638" d="M267.384-2917.47l3.817-5.828-3.459-5.341h2.636l2.24,3.589,2.194-3.589h2.614l-3.475,5.425,3.817,5.744h-2.72l-2.476-3.862-2.483,3.862Z" fill="#e6e6e6"/>
    </g>
  </g>
</svg>
