<svg xmlns="http://www.w3.org/2000/svg" width="94.203" height="49.15" viewBox="0 0 94.203 49.15">
  <g id="Group_7" data-name="Group 7" transform="translate(-21.925 329.274)">
    <g id="Group_5" data-name="Group 5">
      <path id="Path_2" data-name="Path 2" d="M52.321-288.479h-.668a.873.873,0,0,0-1,.947v.517h1.539v.893H50.653v4.229h-.936v-5.617a1.735,1.735,0,0,1,1.807-1.873h.8Z" fill="#fff"/>
      <path id="Path_3" data-name="Path 3" d="M60.241-284.034a2.134,2.134,0,0,1-2.195,2.249,2.125,2.125,0,0,1-2.185-2.249v-2.981H56.8v2.981a1.29,1.29,0,0,0,1.249,1.355,1.282,1.282,0,0,0,1.248-1.355v-2.981h.947Z" fill="#fff"/>
      <path id="Path_4" data-name="Path 4" d="M68.829-281.893h-.947v-2.992a1.281,1.281,0,0,0-1.249-1.345,1.287,1.287,0,0,0-1.248,1.345v2.992h-.936v-2.992a2.122,2.122,0,0,1,2.184-2.238,2.131,2.131,0,0,1,2.2,2.238Z" fill="#fff"/>
      <path id="Path_5" data-name="Path 5" d="M78.191-284.454a2.634,2.634,0,0,1-2.669,2.669,2.625,2.625,0,0,1-2.658-2.669,2.625,2.625,0,0,1,2.658-2.669A2.634,2.634,0,0,1,78.191-284.454Zm-.99,0a1.66,1.66,0,0,0-1.679-1.776,1.66,1.66,0,0,0-1.678,1.776,1.666,1.666,0,0,0,1.678,1.775A1.666,1.666,0,0,0,77.2-284.454Z" fill="#fff"/>
      <path id="Path_6" data-name="Path 6" d="M87.381-284.454a2.634,2.634,0,0,1-2.669,2.669,2.625,2.625,0,0,1-2.658-2.669,2.625,2.625,0,0,1,2.658-2.669A2.634,2.634,0,0,1,87.381-284.454Zm-.99,0a1.66,1.66,0,0,0-1.679-1.776,1.66,1.66,0,0,0-1.678,1.776,1.666,1.666,0,0,0,1.678,1.775A1.666,1.666,0,0,0,86.391-284.454Z" fill="#fff"/>
      <path id="Path_7" data-name="Path 7" d="M95.8-281.893H94.85v-2.992A1.281,1.281,0,0,0,93.6-286.23a1.287,1.287,0,0,0-1.248,1.345v2.992h-.936v-2.992a2.122,2.122,0,0,1,2.184-2.238,2.13,2.13,0,0,1,2.195,2.238Z" fill="#fff"/>
      <path id="Path_8" data-name="Path 8" d="M105.18-284.164a2.586,2.586,0,0,1-2.679,2.379,2.625,2.625,0,0,1-2.658-2.669,2.625,2.625,0,0,1,2.658-2.669,2.633,2.633,0,0,1,2.486,1.614l-3.465,1.927-.388-.743,2.529-1.41a1.4,1.4,0,0,0-1.162-.5,1.661,1.661,0,0,0-1.679,1.776,1.666,1.666,0,0,0,1.679,1.775c1.108,0,1.528-.667,1.722-1.6Z" fill="#fff"/>
      <path id="Path_9" data-name="Path 9" d="M112.122-281.893h-1.259a1.466,1.466,0,0,1-1.518-1.657v-4.767h.937v1.3h1.84v.893h-1.84v2.69c0,.484.225.646.7.646h1.141Z" fill="#fff"/>
    </g>
    <g id="Group_6" data-name="Group 6">
      <path id="Path_10" data-name="Path 10" d="M68.1-308.393a10.664,10.664,0,0,0-10.707-10.621,10.664,10.664,0,0,0-10.707,10.621,10.665,10.665,0,0,0,10.707,10.621,10.726,10.726,0,0,0,5.243-1.362v5.678a2.651,2.651,0,0,0,2.654,2.632,2.861,2.861,0,0,0,2.825-2.7v-13.13A10.046,10.046,0,0,0,68.1-308.393Zm-10.707,5.288a5.31,5.31,0,0,1-5.331-5.288,5.31,5.31,0,0,1,5.331-5.289,5.315,5.315,0,0,1,5.254,4.425c-.005.07-.011.139-.011.21v1.587A5.316,5.316,0,0,1,57.392-303.105Z" fill="#fff"/>
      <path id="Path_11" data-name="Path 11" d="M105.507-318.786a10.621,10.621,0,0,0-10.621,10.621,10.621,10.621,0,0,0,10.621,10.621,10.621,10.621,0,0,0,10.621-10.621A10.621,10.621,0,0,0,105.507-318.786Zm0,15.91a5.289,5.289,0,0,1-5.288-5.289,5.289,5.289,0,0,1,5.288-5.288,5.289,5.289,0,0,1,5.289,5.288A5.289,5.289,0,0,1,105.507-302.876Z" fill="#fff"/>
      <circle id="Ellipse_1" data-name="Ellipse 1" cx="3.94" cy="3.94" r="3.94" transform="translate(101.482 -329.274)" fill="#fff"/>
      <circle id="Ellipse_2" data-name="Ellipse 2" cx="3.94" cy="3.94" r="3.94" transform="translate(77.584 -329.274)" fill="#fff"/>
      <circle id="Ellipse_3" data-name="Ellipse 3" cx="3.94" cy="3.94" r="3.94" transform="translate(29.79 -329.274)" fill="#fff"/>
      <path id="Path_12" data-name="Path 12" d="M85.346-311.837a5.267,5.267,0,0,1,1.488,3.672,5.288,5.288,0,0,1-5.288,5.289,5.289,5.289,0,0,1-5.289-5.289,5.27,5.27,0,0,1,1.633-3.815l-3.844-3.7a10.588,10.588,0,0,0-3.121,7.52,10.621,10.621,0,0,0,10.621,10.621,10.621,10.621,0,0,0,10.621-10.621,10.586,10.586,0,0,0-3.048-7.444Z" fill="#fff"/>
      <path id="Path_13" data-name="Path 13" d="M37.295-311.837a5.267,5.267,0,0,1,1.488,3.672,5.289,5.289,0,0,1-5.289,5.289,5.289,5.289,0,0,1-5.288-5.289,5.266,5.266,0,0,1,1.633-3.815L26-315.685a10.588,10.588,0,0,0-3.121,7.52,10.621,10.621,0,0,0,10.62,10.621,10.621,10.621,0,0,0,10.621-10.621,10.582,10.582,0,0,0-3.048-7.444Z" fill="#fff"/>
    </g>
    <path id="Path_14" data-name="Path 14" d="M21.925-285.061a16.858,16.858,0,0,0,23.84,0v-2.84a16.858,16.858,0,0,1-23.84,0Z" fill="#fff"/>
    <circle id="Ellipse_4" data-name="Ellipse 4" cx="1.826" cy="1.826" r="1.826" transform="translate(34.738 -291.003)" fill="#fff"/>
    <circle id="Ellipse_5" data-name="Ellipse 5" cx="1.826" cy="1.826" r="1.826" transform="translate(28.84 -291.003)" fill="#fff"/>
  </g>
</svg>
