<svg xmlns="http://www.w3.org/2000/svg" width="94.457" height="60.956" viewBox="0 0 94.457 60.956">
  <g id="Group_13" data-name="Group 13" transform="translate(-21.607 1001.376)">
    <g id="Group_10" data-name="Group 10">
      <path id="Path_22" data-name="Path 22" d="M67.906-980.439a10.693,10.693,0,0,0-10.736-10.65,10.693,10.693,0,0,0-10.736,10.65A10.692,10.692,0,0,0,57.17-969.79a10.748,10.748,0,0,0,5.257-1.365v5.694a2.657,2.657,0,0,0,2.66,2.638,2.867,2.867,0,0,0,2.833-2.7v-13.166A10,10,0,0,0,67.906-980.439Zm-10.736,5.3a5.325,5.325,0,0,1-5.346-5.3,5.324,5.324,0,0,1,5.346-5.3,5.33,5.33,0,0,1,5.268,4.437c-.006.07-.011.139-.011.21v1.592A5.331,5.331,0,0,1,57.17-975.136Z" fill="#009ad8"/>
      <path id="Path_23" data-name="Path 23" d="M105.415-990.859a10.65,10.65,0,0,0-10.65,10.649,10.65,10.65,0,0,0,10.65,10.65,10.65,10.65,0,0,0,10.649-10.65A10.649,10.649,0,0,0,105.415-990.859Zm0,15.952a5.3,5.3,0,0,1-5.3-5.3,5.3,5.3,0,0,1,5.3-5.3,5.3,5.3,0,0,1,5.3,5.3A5.3,5.3,0,0,1,105.415-974.907Z" fill="#009ad8"/>
      <circle id="Ellipse_6" data-name="Ellipse 6" cx="3.951" cy="3.951" r="3.951" transform="translate(101.378 -1001.376)" fill="#009ad8"/>
      <circle id="Ellipse_7" data-name="Ellipse 7" cx="3.951" cy="3.951" r="3.951" transform="translate(77.416 -1001.376)" fill="#009ad8"/>
      <circle id="Ellipse_8" data-name="Ellipse 8" cx="3.951" cy="3.951" r="3.951" transform="translate(29.493 -1001.376)" fill="#009ad8"/>
      <path id="Path_24" data-name="Path 24" d="M85.2-983.892a5.282,5.282,0,0,1,1.492,3.682,5.3,5.3,0,0,1-5.3,5.3,5.3,5.3,0,0,1-5.3-5.3,5.281,5.281,0,0,1,1.637-3.825l-3.854-3.715a10.612,10.612,0,0,0-3.13,7.54,10.65,10.65,0,0,0,10.65,10.65,10.65,10.65,0,0,0,10.649-10.65,10.614,10.614,0,0,0-3.056-7.464Z" fill="#009ad8"/>
      <path id="Path_25" data-name="Path 25" d="M37.019-983.892a5.281,5.281,0,0,1,1.491,3.682,5.3,5.3,0,0,1-5.3,5.3,5.3,5.3,0,0,1-5.3-5.3,5.281,5.281,0,0,1,1.637-3.825l-3.854-3.715a10.616,10.616,0,0,0-3.13,7.54,10.65,10.65,0,0,0,10.65,10.65,10.65,10.65,0,0,0,10.649-10.65,10.614,10.614,0,0,0-3.056-7.464Z" fill="#009ad8"/>
    </g>
    <g id="Group_12" data-name="Group 12">
      <g id="Group_11" data-name="Group 11">
        <path id="Path_26" data-name="Path 26" d="M52.085-948.8h-.669a.876.876,0,0,0-1,.95v.518h1.543v.9H50.412v4.24h-.938v-5.632a1.739,1.739,0,0,1,1.812-1.878h.8Z" fill="#009ad8"/>
        <path id="Path_27" data-name="Path 27" d="M60.026-944.342a2.139,2.139,0,0,1-2.2,2.255,2.13,2.13,0,0,1-2.19-2.255v-2.989h.938v2.989a1.293,1.293,0,0,0,1.252,1.359,1.287,1.287,0,0,0,1.252-1.359v-2.989h.949Z" fill="#009ad8"/>
        <path id="Path_28" data-name="Path 28" d="M68.637-942.2h-.95v-3a1.283,1.283,0,0,0-1.251-1.349,1.291,1.291,0,0,0-1.252,1.349v3h-.939v-3a2.129,2.129,0,0,1,2.191-2.245,2.137,2.137,0,0,1,2.2,2.245Z" fill="#009ad8"/>
        <path id="Path_29" data-name="Path 29" d="M78.025-944.763a2.641,2.641,0,0,1-2.676,2.676,2.632,2.632,0,0,1-2.665-2.676,2.632,2.632,0,0,1,2.665-2.676A2.641,2.641,0,0,1,78.025-944.763Zm-.993,0a1.665,1.665,0,0,0-1.683-1.78,1.665,1.665,0,0,0-1.683,1.78,1.67,1.67,0,0,0,1.683,1.78A1.67,1.67,0,0,0,77.032-944.763Z" fill="#009ad8"/>
        <path id="Path_30" data-name="Path 30" d="M87.24-944.763a2.641,2.641,0,0,1-2.676,2.676,2.632,2.632,0,0,1-2.666-2.676,2.632,2.632,0,0,1,2.666-2.676A2.641,2.641,0,0,1,87.24-944.763Zm-.993,0a1.665,1.665,0,0,0-1.683-1.78,1.665,1.665,0,0,0-1.684,1.78,1.671,1.671,0,0,0,1.684,1.78A1.67,1.67,0,0,0,86.247-944.763Z" fill="#009ad8"/>
        <path id="Path_31" data-name="Path 31" d="M95.678-942.2h-.95v-3a1.284,1.284,0,0,0-1.251-1.349,1.291,1.291,0,0,0-1.252,1.349v3h-.939v-3a2.129,2.129,0,0,1,2.191-2.245,2.137,2.137,0,0,1,2.2,2.245Z" fill="#009ad8"/>
        <path id="Path_32" data-name="Path 32" d="M105.087-944.472a2.594,2.594,0,0,1-2.687,2.385,2.632,2.632,0,0,1-2.665-2.676,2.632,2.632,0,0,1,2.665-2.676,2.642,2.642,0,0,1,2.493,1.619l-3.475,1.931-.388-.745,2.536-1.413a1.409,1.409,0,0,0-1.166-.5,1.665,1.665,0,0,0-1.683,1.78,1.67,1.67,0,0,0,1.683,1.78c1.111,0,1.532-.668,1.726-1.607Z" fill="#009ad8"/>
        <path id="Path_33" data-name="Path 33" d="M112.047-942.2h-1.263a1.469,1.469,0,0,1-1.521-1.662v-4.779h.939v1.3h1.845v.9H110.2v2.7c0,.486.226.647.7.647h1.144Z" fill="#009ad8"/>
      </g>
      <path id="Path_34" data-name="Path 34" d="M21.607-945.371a16.9,16.9,0,0,0,23.9,0v-2.848a16.9,16.9,0,0,1-23.9,0Z" fill="#009ad8"/>
      <circle id="Ellipse_9" data-name="Ellipse 9" cx="1.831" cy="1.831" r="1.831" transform="translate(34.454 -951.33)" fill="#009ad8"/>
      <circle id="Ellipse_10" data-name="Ellipse 10" cx="1.831" cy="1.831" r="1.831" transform="translate(28.54 -951.33)" fill="#009ad8"/>
    </g>
  </g>
</svg>
