<svg id="Group_918" data-name="Group 918" xmlns="http://www.w3.org/2000/svg" width="37.902" height="37.903" viewBox="0 0 37.902 37.903">
  <circle id="Ellipse_1542" data-name="Ellipse 1542" cx="18.952" cy="18.952" r="18.952" fill="#3fa9f5"/>
  <g id="Group_917" data-name="Group 917" transform="translate(8.121 11.83)">
    <path id="Path_5162" data-name="Path 5162" d="M555.859,447.793a.178.178,0,0,1,.047.166,2.2,2.2,0,0,0,.029,1.416,1.792,1.792,0,0,0,1.5,1.258,9.06,9.06,0,0,0,1.171.022c.278,0,.558,0,.845,0v-.013c.5,0,1.053.005,1.234.008,1.164.022-.168,1.479.05,5.146.124,2.1,2.053,2.759,2.677,1.234a10.34,10.34,0,0,0,.411-1.33,8.646,8.646,0,0,1,3.125-5.089,4.287,4.287,0,0,1,2.172-.733h.076a.4.4,0,0,0,.4-.4v-9.123a.4.4,0,0,0-.4-.4h-.076c-2.744-.285-2.715-1.323-5.76-1.349q-1.427-.013-2.855-.005c-.535,0-1.072,0-1.607,0a1.805,1.805,0,0,0-1.614.81,2.109,2.109,0,0,0-.283,1.833c.025.089.03.143-.077.193a1.9,1.9,0,0,0-1.035,1.243,2.166,2.166,0,0,0,.03,1.318C554.4,445.17,555.381,447.515,555.859,447.793Z" transform="translate(-555.103 -438.6)" fill="none" stroke="#181818" stroke-miterlimit="10" stroke-width="0.942" fill-rule="evenodd"/>
    <rect id="Rectangle_800" data-name="Rectangle 800" width="6.248" height="10.541" rx="0.447" transform="translate(15.186 1.048)" fill="none" stroke="#181818" stroke-miterlimit="10" stroke-width="0.942"/>
  </g>
</svg>
