<svg id="Group_812" data-name="Group 812" xmlns="http://www.w3.org/2000/svg" width="32.43" height="29.935" viewBox="0 0 32.43 29.935">
  <g id="Group_811" data-name="Group 811">
    <g id="Group_810" data-name="Group 810">
      <g id="Group_809" data-name="Group 809">
        <path id="Path_5098" data-name="Path 5098" d="M579.762,1339.591l-13.4-13.4a9.73,9.73,0,0,1-2.815-7.135v-.009a9.664,9.664,0,0,1,.139-1.346l.014-.1c.015-.106.035-.237.071-.388a10.11,10.11,0,0,1,.374-1.281l.006-.015c.035-.1.072-.191.112-.29l.009-.023c.046-.11.094-.194.122-.247l.009-.017a9.669,9.669,0,0,1,.672-1.235c.086-.137.172-.254.249-.357l.06-.082a9.26,9.26,0,0,1,.775-.939l.066-.071c.085-.093.179-.2.294-.3a9.478,9.478,0,0,1,1.134-.937c.035-.028.092-.074.166-.125a10,10,0,0,1,1.44-.787l.032-.014c.134-.057.26-.1.373-.148l.1-.038.009,0a10.266,10.266,0,0,1,1.149-.357c.182-.044.357-.086.553-.12a9.611,9.611,0,0,1,8.28,2.378,9.5,9.5,0,0,1,8.281-2.378c.194.034.371.076.548.12a10.525,10.525,0,0,1,1.152.357l.011,0,.111.04c.109.042.233.087.363.145l.034.014a10.063,10.063,0,0,1,1.443.79c.069.048.128.094.163.122a9.852,9.852,0,0,1,1.132.937c.115.108.211.211.294.3l.069.076a9.016,9.016,0,0,1,.772.936l.06.082c.077.1.163.22.25.357a9.99,9.99,0,0,1,.673,1.235l.008.017c.028.052.075.137.122.247l.014.032c.029.074.057.146.085.219l.029.077a9.808,9.808,0,0,1,.374,1.281c.035.151.055.282.071.388,0,.032.009.065.015.1a9.629,9.629,0,0,1,.137,1.346v.009a9.729,9.729,0,0,1-2.814,7.135l-10.693,10.693Zm-13.227-20.444a6.648,6.648,0,0,0,1.942,4.935l11.284,11.284,11.284-11.284a6.7,6.7,0,0,0,1.848-5.859v-.009c-.011-.058-.019-.115-.028-.174-.006-.043-.015-.1-.02-.122l-.008-.035a7.125,7.125,0,0,0-.259-.9l-.015-.04-.057-.148a2.515,2.515,0,0,1-.114-.228,6.712,6.712,0,0,0-.461-.846l-.006-.009c-.031-.048-.08-.114-.132-.185l-.077-.106,0-.006a6.033,6.033,0,0,0-.521-.633l-.091-.1c-.055-.062-.109-.119-.149-.157l-.009-.008a6.806,6.806,0,0,0-.808-.668c-.054-.037-.1-.072-.128-.1a7.168,7.168,0,0,0-.966-.521c-.066-.028-.143-.057-.225-.088l-.123-.046a7.684,7.684,0,0,0-.816-.252c-.128-.032-.246-.06-.35-.079h-.009a6.563,6.563,0,0,0-6.561,2.547l-1.192,1.583-1.194-1.583a6.566,6.566,0,0,0-6.562-2.547H572c-.1.019-.22.046-.353.079a7.638,7.638,0,0,0-.813.252l-.114.043c-.085.032-.165.062-.234.091a6.961,6.961,0,0,0-.964.521c-.031.025-.075.06-.129.1a6.691,6.691,0,0,0-.807.665l-.011.009c-.04.039-.092.1-.149.157l-.088.094a6.208,6.208,0,0,0-.524.636l0,.006-.077.106c-.052.071-.1.137-.132.185l-.006.009a6.912,6.912,0,0,0-.46.846,2.383,2.383,0,0,1-.114.229c-.025.062-.048.122-.071.182a7.019,7.019,0,0,0-.26.9l-.008.035c0,.02-.014.079-.02.122-.009.059-.017.116-.028.174l0,.009A6.891,6.891,0,0,0,566.535,1319.148Z" transform="translate(-563.546 -1309.656)" fill="#e6e6e6"/>
      </g>
    </g>
  </g>
</svg>
