<svg id="Group_916" data-name="Group 916" xmlns="http://www.w3.org/2000/svg" width="37.902" height="37.903" viewBox="0 0 37.902 37.903">
  <circle id="Ellipse_1541" data-name="Ellipse 1541" cx="18.952" cy="18.952" r="18.952" fill="#3fa9f5"/>
  <g id="Group_915" data-name="Group 915" transform="translate(8.243 7.897)">
    <path id="Path_5161" data-name="Path 5161" d="M544.69,446.326a.178.178,0,0,1-.049-.166,2.2,2.2,0,0,0-.029-1.416,1.79,1.79,0,0,0-1.5-1.256,8.772,8.772,0,0,0-1.171-.023h-.845v.012c-.5,0-1.053-.005-1.233-.008-1.166-.022.166-1.479-.052-5.146-.124-2.1-2.051-2.758-2.675-1.234a10.014,10.014,0,0,0-.413,1.332,8.647,8.647,0,0,1-3.125,5.089,4.318,4.318,0,0,1-2.172.733h-.075a.4.4,0,0,0-.4.4v9.123a.4.4,0,0,0,.4.4h.075c2.746.287,2.716,1.325,5.76,1.35q1.427.01,2.855.005c.535,0,1.072-.005,1.607,0a1.809,1.809,0,0,0,1.615-.808,2.115,2.115,0,0,0,.282-1.833c-.025-.091-.028-.144.079-.195a1.9,1.9,0,0,0,1.033-1.241,2.172,2.172,0,0,0-.03-1.32C546.152,448.949,545.166,446.606,544.69,446.326Z" transform="translate(-524.011 -436.255)" fill="none" stroke="#181818" stroke-miterlimit="10" stroke-width="0.942" fill-rule="evenodd"/>
    <rect id="Rectangle_799" data-name="Rectangle 799" width="6.248" height="10.541" rx="0.447" transform="translate(0 7.676)" fill="none" stroke="#181818" stroke-miterlimit="10" stroke-width="0.942"/>
  </g>
</svg>
