<svg xmlns="http://www.w3.org/2000/svg" width="24.316" height="21.951" viewBox="0 0 24.316 21.951">
  <g id="Group_915" data-name="Group 915" transform="translate(0.471 0.475)">
    <path id="Path_5161" data-name="Path 5161" d="M545.931,447.236a.194.194,0,0,1-.053-.181,2.4,2.4,0,0,0-.031-1.543,1.952,1.952,0,0,0-1.639-1.37,9.565,9.565,0,0,0-1.277-.026h-.922v.013c-.545,0-1.148-.005-1.344-.009-1.271-.024.181-1.613-.057-5.611-.135-2.29-2.237-3.007-2.917-1.346a10.914,10.914,0,0,0-.45,1.452,9.428,9.428,0,0,1-3.407,5.549,4.707,4.707,0,0,1-2.368.8h-.082a.436.436,0,0,0-.435.435v9.947a.436.436,0,0,0,.435.435h.082c2.994.313,2.961,1.445,6.28,1.472q1.555.011,3.113.005c.583,0,1.169-.005,1.752,0a1.972,1.972,0,0,0,1.761-.881,2.305,2.305,0,0,0,.307-2c-.027-.1-.031-.157.086-.212a2.066,2.066,0,0,0,1.127-1.353,2.369,2.369,0,0,0-.033-1.439C547.525,450.1,546.45,447.541,545.931,447.236Z" transform="translate(-523.384 -436.255)" fill="none" stroke="#fff" stroke-miterlimit="10" stroke-width="0.942" fill-rule="evenodd"/>
    <rect id="Rectangle_799" data-name="Rectangle 799" width="6.812" height="11.493" rx="0.447" transform="translate(0 8.37)" fill="none" stroke="#fff" stroke-miterlimit="10" stroke-width="0.942"/>
  </g>
</svg>
