<svg xmlns="http://www.w3.org/2000/svg" width="24.316" height="21.951" viewBox="0 0 24.316 21.951">
  <g id="Group_2639" data-name="Group 2639" transform="translate(0.471 0.471)">
    <g id="Group_915" data-name="Group 915" transform="translate(0 0)">
      <path id="Path_5161" data-name="Path 5161" d="M14.982,10.024a.194.194,0,0,0-.053.181,2.4,2.4,0,0,1-.031,1.543,1.952,1.952,0,0,1-1.639,1.37,9.564,9.564,0,0,1-1.276.026h-.922v-.013c-.545,0-1.148.005-1.344.009-1.271.024.181,1.613-.057,5.611-.135,2.29-2.237,3.007-2.917,1.346a10.919,10.919,0,0,1-.45-1.452A9.428,9.428,0,0,0,2.886,13.1a4.707,4.707,0,0,0-2.368-.8H.435A.436.436,0,0,1,0,11.862V1.915A.436.436,0,0,1,.435,1.48H.518C3.511,1.167,3.478.035,6.8.008Q8.353,0,9.91,0c.583,0,1.169.006,1.752,0a1.972,1.972,0,0,1,1.761.882,2.306,2.306,0,0,1,.307,2c-.027.1-.031.157.086.212a2.066,2.066,0,0,1,1.127,1.353,2.368,2.368,0,0,1-.033,1.439C16.576,7.164,15.5,9.719,14.982,10.024Z" transform="translate(7.565 0)" fill="none" stroke="#fff" stroke-miterlimit="10" stroke-width="0.942" fill-rule="evenodd"/>
      <rect id="Rectangle_799" data-name="Rectangle 799" width="6.812" height="11.493" rx="0.447" transform="translate(0 1.142)" fill="none" stroke="#fff" stroke-miterlimit="10" stroke-width="0.942"/>
    </g>
  </g>
</svg>
