<svg xmlns="http://www.w3.org/2000/svg" width="23.791" height="19.342" viewBox="0 0 23.791 19.342">
  <path id="Path_4821" data-name="Path 4821" d="M3023.618,1909.956h-3.526v.426q0,3.178,0,6.356c0,.669-.247.912-.919.912h-5.665c-.627,0-.905-.274-.905-.9q0-4.776,0-9.553v-.47c-.524.378-.984.723-1.458,1.047a.737.737,0,0,1-.9-1.167,2.736,2.736,0,0,1,.259-.2l6.752-4.909q1.981-1.441,3.963-2.882c.532-.387.75-.39,1.269-.013q5.4,3.927,10.8,7.855a1.888,1.888,0,0,1,.2.157.739.739,0,0,1,.118,1.013.718.718,0,0,1-1,.158c-.483-.322-.944-.675-1.487-1.067v.422q0,4.758,0,9.516c0,.758-.236.994-.992.994-1.8,0-3.608-.026-5.411.011-.874.018-1.11-.339-1.1-1.122.027-2.058.009-4.116.009-6.175Zm-5.006,6.2v-.478q0-3.16,0-6.32c0-.628.282-.908.9-.909q2.306,0,4.612,0c.715,0,.965.246.965.949q0,3.16,0,6.32v.429h4.507c.008-.122.02-.312.02-.312s0-6.611-.01-9.916a.669.669,0,0,0-.249-.463q-3.422-2.515-6.863-5.006c-.213-.155-.429-.307-.639-.458-.082.055-.144.093-.2.136q-3.64,2.648-7.284,5.292a.611.611,0,0,0-.28.568q.013,4.885.007,9.771c0,.129.011.257.018.4Z" transform="translate(-3009.964 -1898.32)" fill="#fff"/>
</svg>
