<?xml version="1.0" encoding="utf-8"?>
<!-- Generator: Adobe Illustrator 26.0.1, SVG Export Plug-In . SVG Version: 6.00 Build 0)  -->
<svg version="1.1" id="Layer_1" xmlns="http://www.w3.org/2000/svg" xmlns:xlink="http://www.w3.org/1999/xlink" x="0px" y="0px"
	 viewBox="0 0 47.6 47.6" style="enable-background:new 0 0 47.6 47.6;" xml:space="preserve">
<style type="text/css">
	.st0{fill:#0096D5;}
</style>
<g>
	<g>
		<g>
			<path class="st0" d="M23.8,47.6C10.7,47.6,0,36.9,0,23.8S10.7,0,23.8,0c4.5,0,8.9,1.3,12.7,3.7c0.5,0.3,0.6,0.9,0.3,1.4
				c-0.3,0.5-0.9,0.6-1.4,0.3C31.9,3.2,27.9,2,23.8,2C11.8,2,2,11.8,2,23.8s9.8,21.8,21.8,21.8c4.7,0,9.1-1.5,12.9-4.2
				c0.4-0.3,1.1-0.2,1.4,0.2c0.3,0.4,0.2,1.1-0.2,1.4C33.8,46,28.9,47.6,23.8,47.6z"/>
		</g>
		<g>
			<path class="st0" d="M40.7,40.1c-0.2,0-0.5-0.1-0.7-0.3c-0.4-0.4-0.4-1-0.1-1.4c3.6-4,5.6-9.2,5.6-14.6c0-5.3-1.9-10.3-5.3-14.3
				c-0.4-0.4-0.3-1.1,0.1-1.4c0.4-0.4,1.1-0.3,1.4,0.1c3.8,4.3,5.8,9.9,5.8,15.6c0,5.9-2.2,11.5-6.1,15.9
				C41.3,39.9,41,40.1,40.7,40.1z"/>
		</g>
		<g>
			<path class="st0" d="M37.1,36.9c-0.3,0-0.5-0.1-0.7-0.3c-0.4-0.4-0.4-1,0-1.4c6.3-6.3,6.3-16.5,0-22.8c-0.4-0.4-0.4-1,0-1.4
				c0.4-0.4,1-0.4,1.4,0c7.1,7.1,7.1,18.6,0,25.6C37.6,36.8,37.4,36.9,37.1,36.9z"/>
		</g>
		<g>
			<path class="st0" d="M32.6,32.5c-0.3,0-0.5-0.1-0.7-0.3c-0.4-0.4-0.4-1,0-1.4c3.8-3.8,3.8-10,0-13.9c-0.4-0.4-0.4-1,0-1.4
				c0.4-0.4,1-0.4,1.4,0c4.6,4.6,4.6,12.1,0,16.7C33.2,32.4,32.9,32.5,32.6,32.5z"/>
		</g>
		<g>
			<path class="st0" d="M27.5,32.5c-0.2,0-0.5-0.1-0.7-0.3l-4.7-4.1h-5.1c-0.6,0-1-0.5-1-1v-7.2c0-0.6,0.4-1,1-1h4.7l5.1-3.5
				c0.3-0.2,0.7-0.2,1-0.1c0.3,0.2,0.5,0.5,0.5,0.9v15.3c0,0.4-0.2,0.8-0.6,0.9C27.8,32.4,27.7,32.5,27.5,32.5z M18.1,26.1h4.5
				c0.2,0,0.5,0.1,0.7,0.3l3.3,2.9V18.1l-3.8,2.6c-0.2,0.1-0.4,0.2-0.6,0.2h-4V26.1z"/>
		</g>
	</g>
</g>
</svg>
