<svg xmlns="http://www.w3.org/2000/svg" width="16.5" height="18.927" viewBox="0 0 16.5 18.927">
  <g id="Group_380" data-name="Group 380" transform="translate(-2200.522 -1838.02)">
    <path id="Path_4826" data-name="Path 4826" d="M2215.338,1960.669v-.646c0-1.1-.013-2.208.01-3.311a.8.8,0,0,1,.86-.856.821.821,0,0,1,.809.857c0,.035,0,.07,0,.105,0,1.524.007,3.048,0,4.572,0,.7-.307,1-.993,1q-7.252,0-14.505,0c-.667,0-.982-.293-.988-.949q-.018-2.339,0-4.677a.809.809,0,0,1,.809-.907.818.818,0,0,1,.861.912c.017,1.1.006,2.207.006,3.311,0,.188,0,.375,0,.59Z" transform="translate(0 -105.444)" fill="#fff"/>
    <path id="Path_4827" data-name="Path 4827" d="M2240.584,1847.638v-8.217c0-.1,0-.21,0-.315,0-.7.313-1.094.853-1.086s.828.4.829,1.113q0,1.919,0,3.838v4.665l.121.085q.732-.762,1.463-1.524c.183-.189.361-.384.559-.556a.84.84,0,0,1,1.188,1.188c-.552.587-1.132,1.148-1.7,1.72-.593.6-1.182,1.2-1.78,1.788a.851.851,0,0,1-1.367.016q-1.713-1.707-3.409-3.431a.851.851,0,0,1-.058-1.3.84.84,0,0,1,1.256.109c.651.636,1.294,1.281,1.941,1.92C2240.486,1847.661,2240.509,1847.651,2240.584,1847.638Z" transform="translate(-32.65 0)" fill="#fff"/>
  </g>
</svg>
