<svg xmlns="http://www.w3.org/2000/svg" width="57.558" height="37.144" viewBox="0 0 57.558 37.144">
  <g id="Group_2683" data-name="Group 2683" transform="translate(-21.607 -18.624)">
    <g id="Group_28" data-name="Group 28" transform="translate(22.186 18.624)">
      <path id="Path_60" data-name="Path 60" d="M59.518,35.4a6.527,6.527,0,1,0-3.339,5.657v3.47A1.619,1.619,0,0,0,57.8,46.135a1.747,1.747,0,0,0,1.726-1.648V36.465A6.1,6.1,0,0,0,59.518,35.4Zm-6.542,3.231a3.231,3.231,0,1,1,3.21-3.759c0,.043-.007.085-.007.128v.97A3.249,3.249,0,0,1,52.976,38.632Z" transform="translate(-31.885 -22.643)" fill="#fff"/>
      <path id="Path_61" data-name="Path 61" d="M101.255,29.141a6.489,6.489,0,1,0,6.489,6.489A6.489,6.489,0,0,0,101.255,29.141Zm0,9.72a3.231,3.231,0,1,1,3.231-3.231A3.231,3.231,0,0,1,101.255,38.861Z" transform="translate(-50.765 -22.732)" fill="#fff"/>
      <circle id="Ellipse_16" data-name="Ellipse 16" cx="2.407" cy="2.407" r="2.407" transform="translate(48.029)" fill="#fff"/>
      <circle id="Ellipse_17" data-name="Ellipse 17" cx="2.407" cy="2.407" r="2.407" transform="translate(33.428)" fill="#fff"/>
      <circle id="Ellipse_18" data-name="Ellipse 18" cx="2.407" cy="2.407" r="2.407" transform="translate(4.226)" fill="#fff"/>
      <path id="Path_62" data-name="Path 62" d="M79.55,34.6a3.231,3.231,0,1,1-4.556-.087L72.646,32.25a6.49,6.49,0,1,0,9.209.046Z" transform="translate(-41.38 -23.947)" fill="#fff"/>
      <path id="Path_63" data-name="Path 63" d="M31.37,34.6a3.232,3.232,0,1,1-4.556-.087L24.465,32.25a6.49,6.49,0,1,0,9.209.046Z" transform="translate(-22.558 -23.947)" fill="#fff"/>
    </g>
    <g id="Group_30" data-name="Group 30" transform="translate(21.607 49.12)">
      <g id="Group_29" data-name="Group 29" transform="translate(16.981 0.99)">
        <path id="Path_64" data-name="Path 64" d="M51.065,70.847h-.408a.534.534,0,0,0-.612.579v.316h.94v.546h-.94v2.584h-.572V71.439a1.06,1.06,0,0,1,1.1-1.144h.487Z" transform="translate(-49.474 -70.295)" fill="#fff"/>
        <path id="Path_65" data-name="Path 65" d="M58.311,74.49a1.338,1.338,0,1,1-2.676,0V72.669h.572V74.49a.765.765,0,1,0,1.526,0V72.669h.578Z" transform="translate(-51.881 -71.222)" fill="#fff"/>
        <path id="Path_66" data-name="Path 66" d="M66.921,75.756h-.579V73.929a.765.765,0,1,0-1.525,0v1.827h-.572V73.929a1.338,1.338,0,1,1,2.676,0Z" transform="translate(-55.244 -71.18)" fill="#fff"/>
        <path id="Path_67" data-name="Path 67" d="M75.939,74.192a1.627,1.627,0,1,1-1.631-1.631A1.609,1.609,0,0,1,75.939,74.192Zm-.605,0a1.027,1.027,0,1,0-1.026,1.085A1.014,1.014,0,0,0,75.333,74.192Z" transform="translate(-58.541 -71.18)" fill="#fff"/>
        <path id="Path_68" data-name="Path 68" d="M85.153,74.192a1.628,1.628,0,1,1-1.631-1.631A1.609,1.609,0,0,1,85.153,74.192Zm-.605,0a1.027,1.027,0,1,0-1.026,1.085A1.014,1.014,0,0,0,84.548,74.192Z" transform="translate(-62.14 -71.18)" fill="#fff"/>
        <path id="Path_69" data-name="Path 69" d="M93.962,75.756h-.579V73.929a.765.765,0,1,0-1.525,0v1.827h-.572V73.929a1.338,1.338,0,1,1,2.676,0Z" transform="translate(-65.808 -71.18)" fill="#fff"/>
        <path id="Path_70" data-name="Path 70" d="M103,74.369a1.58,1.58,0,0,1-1.637,1.453,1.631,1.631,0,1,1,1.519-2.275l-2.118,1.177-.236-.454,1.545-.861a.859.859,0,0,0-.711-.3,1.086,1.086,0,0,0,0,2.169c.677,0,.934-.407,1.052-.979Z" transform="translate(-69.108 -71.18)" fill="#fff"/>
        <path id="Path_71" data-name="Path 71" d="M110.959,75.289h-.77a.9.9,0,0,1-.927-1.013V71.364h.572v.8h1.124v.546h-1.124v1.643c0,.3.138.394.427.394h.7Z" transform="translate(-72.83 -70.713)" fill="#fff"/>
      </g>
      <path id="Path_72" data-name="Path 72" d="M21.607,73.516a10.3,10.3,0,0,0,14.566,0V71.781a10.3,10.3,0,0,1-14.566,0Z" transform="translate(-21.607 -69.885)" fill="#fff"/>
      <circle id="Ellipse_19" data-name="Ellipse 19" cx="1.116" cy="1.116" r="1.116" transform="translate(7.828)" fill="#fff"/>
      <circle id="Ellipse_20" data-name="Ellipse 20" cx="1.116" cy="1.116" r="1.116" transform="translate(4.225)" fill="#fff"/>
    </g>
  </g>
</svg>
