<?xml version="1.0" encoding="utf-8"?>
<!-- Generator: Adobe Illustrator 26.0.1, SVG Export Plug-In . SVG Version: 6.00 Build 0)  -->
<svg version="1.1" id="Layer_1" xmlns="http://www.w3.org/2000/svg" xmlns:xlink="http://www.w3.org/1999/xlink" x="0px" y="0px"
	 viewBox="0 0 47.6 47.6" style="enable-background:new 0 0 47.6 47.6;" xml:space="preserve">
<style type="text/css">
	.st0{fill:#0096D5;}
	.st1{fill-rule:evenodd;clip-rule:evenodd;fill:#0096D5;}
</style>
<path class="st0" d="M23.8,0C10.7,0,0,10.7,0,23.8c0,13.1,10.7,23.8,23.8,23.8c13.1,0,23.8-10.7,23.8-23.8C47.6,10.7,36.9,0,23.8,0z
	 M23.8,45.8c-12.1,0-22-9.8-22-22c0-12.1,9.8-22,22-22c12.1,0,22,9.8,22,22C45.8,35.9,35.9,45.8,23.8,45.8z"/>
<g>
	<g>
		<g>
			<g>
				<g>
					<path class="st0" d="M22.9,32.2c-0.2,0-0.5-0.1-0.6-0.2l-4.5-4h-4.9c-0.5,0-1-0.4-1-1v-7c0-0.5,0.4-1,1-1h4.6l5-3.4
						c0.3-0.2,0.7-0.2,1-0.1c0.3,0.2,0.5,0.5,0.5,0.9v14.9c0,0.4-0.2,0.7-0.6,0.9C23.2,32.2,23,32.2,22.9,32.2z"/>
				</g>
			</g>
		</g>
	</g>
	<path class="st1" d="M26.2,18.9L26.2,18.9c0.4-0.4,1.2-0.4,1.6,0l3.3,3.3l3.3-3.3c0.4-0.4,1.2-0.4,1.6,0l0,0c0.4,0.4,0.4,1.2,0,1.6
		l-3.3,3.3l3.3,3.3c0.4,0.4,0.4,1.2,0,1.6l0,0c-0.4,0.4-1.2,0.4-1.6,0l-3.3-3.3l-3.3,3.3c-0.4,0.4-1.2,0.4-1.6,0l0,0
		c-0.4-0.4-0.4-1.2,0-1.6l3.3-3.3l-3.3-3.3C25.8,20.1,25.8,19.3,26.2,18.9"/>
</g>
</svg>
