<svg xmlns="http://www.w3.org/2000/svg" width="18.005" height="18.014" viewBox="0 0 18.005 18.014">
  <g id="Group_379" data-name="Group 379" transform="translate(-1680.046 -1859.063)">
    <path id="Path_4822" data-name="Path 4822" d="M1684.2,1859.136c.522,0,1.045-.016,1.566,0a2.448,2.448,0,0,1,2.469,2.44c.038,1.108.041,2.22,0,3.327a2.411,2.411,0,0,1-2.369,2.4c-1.129.05-2.263.047-3.392,0a2.424,2.424,0,0,1-2.4-2.433c-.035-1.087-.031-2.176,0-3.262a2.454,2.454,0,0,1,2.5-2.473C1683.114,1859.121,1683.658,1859.136,1684.2,1859.136Zm-.112,6.529c.522,0,1.044.01,1.566,0,.645-.015.922-.275.931-.905.015-1.022.005-2.044,0-3.066a.791.791,0,0,0-.874-.9q-1.566-.009-3.131,0a.769.769,0,0,0-.864.838q-.016,1.6,0,3.2a.772.772,0,0,0,.868.836C1683.09,1865.668,1683.591,1865.664,1684.091,1865.665Z" transform="translate(0 -0.058)" fill="#fff"/>
    <path id="Path_4823" data-name="Path 4823" d="M1763.259,1863.21c0,.522.015,1.045,0,1.566a2.464,2.464,0,0,1-2.5,2.481c-1.065.026-2.132.029-3.2,0a2.448,2.448,0,0,1-2.48-2.5c-.026-1.065-.028-2.132,0-3.2a2.446,2.446,0,0,1,2.5-2.479q1.6-.04,3.2,0a2.46,2.46,0,0,1,2.482,2.5C1763.274,1862.122,1763.259,1862.666,1763.259,1863.21Zm-1.655.024c0-.522.01-1.044,0-1.565-.015-.648-.272-.923-.9-.932-1.022-.014-2.044,0-3.066,0a.79.79,0,0,0-.9.871q-.009,1.566,0,3.131a.77.77,0,0,0,.837.867q1.6.017,3.2,0a.773.773,0,0,0,.837-.868C1761.608,1864.234,1761.6,1863.734,1761.6,1863.234Z" transform="translate(-65.215 0)" fill="#fff"/>
    <path id="Path_4824" data-name="Path 4824" d="M1688.289,1938.2c0,.522.015,1.045,0,1.566a2.463,2.463,0,0,1-2.482,2.5c-1.065.028-2.132.026-3.2,0a2.46,2.46,0,0,1-2.5-2.543q-.027-1.533,0-3.067a2.463,2.463,0,0,1,2.545-2.565c1.044-.02,2.089-.024,3.132,0a2.46,2.46,0,0,1,2.5,2.478C1688.306,1937.114,1688.288,1937.659,1688.289,1938.2Zm-6.529-.024c0,.5-.009,1,0,1.5.015.65.269.925.9.934,1.022.015,2.044,0,3.066,0a.792.792,0,0,0,.9-.871q.011-1.566,0-3.131a.77.77,0,0,0-.836-.867q-1.6-.017-3.2,0a.771.771,0,0,0-.837.865C1681.756,1937.135,1681.761,1937.657,1681.759,1938.179Z" transform="translate(-0.042 -65.213)" fill="#fff"/>
    <path id="Path_4825" data-name="Path 4825" d="M1763.246,1938.162c0,.522.013,1.045,0,1.566a2.462,2.462,0,0,1-2.467,2.512c-1.087.031-2.176.033-3.263,0a2.441,2.441,0,0,1-2.446-2.462c-.029-1.087-.033-2.176,0-3.263a2.436,2.436,0,0,1,2.461-2.445q1.63-.047,3.263,0a2.453,2.453,0,0,1,2.449,2.462C1763.264,1937.074,1763.246,1937.618,1763.246,1938.162Zm-4.055-2.445h-1.566c-.634.029-.9.284-.906.931q-.019,1.5,0,3c.007.654.265.929.9.938,1.022.015,2.044,0,3.066,0a.793.793,0,0,0,.907-.867c.008-1.044.007-2.087,0-3.131a.791.791,0,0,0-.9-.876C1760.192,1935.716,1759.692,1935.718,1759.192,1935.717Z" transform="translate(-65.202 -65.187)" fill="#fff"/>
  </g>
</svg>
